<svg width="44" height="49" viewBox="0 0 44 49" fill="none" xmlns="http://www.w3.org/2000/svg">
<g id="avatar 1" clip-path="url(#clip0_377_945)">
<g id="Layer 1">
<g id="Group">
<path id="Vector" d="M25.2476 0.228245C25.4048 0.233909 25.4733 0.314682 25.4531 0.470318C25.4171 0.745635 25.4041 0.998543 25.4142 1.22929C25.4186 1.34035 25.4763 1.39871 25.5872 1.40438C26.2438 1.4391 26.8114 1.42605 27.2905 1.36547C27.4204 1.34823 27.4833 1.40512 27.4788 1.53637C27.4571 2.28598 27.4564 2.9989 27.4766 3.67489C27.4781 3.74704 27.5148 3.78299 27.587 3.78299C28.5551 3.78004 29.5607 3.76649 30.604 3.74187C30.7179 3.73891 30.7736 3.79457 30.7706 3.90834C30.7475 4.56437 30.7613 5.08176 30.8118 5.461C30.8305 5.5994 30.9091 5.66293 31.0477 5.65136C31.5122 5.61393 31.9596 5.59004 32.3894 5.57994C32.6088 5.57428 32.717 5.68165 32.714 5.90205C32.6968 6.99322 32.7133 7.89133 32.7638 8.59637C32.7783 8.79953 32.887 8.89484 33.0906 8.88178C33.4601 8.85716 33.8041 8.88252 34.1228 8.95739C34.3377 9.00787 34.4452 9.14331 34.4452 9.36396V13.2563C34.4452 13.3285 34.4489 13.4004 34.456 13.4725C34.6594 15.4719 34.6811 17.4319 34.5209 19.352C34.5152 19.4241 34.5467 19.4717 34.616 19.4948C34.8916 19.5899 35.1218 19.68 35.3064 19.7652C35.3727 19.7955 35.4067 19.8467 35.4082 19.9186C35.4254 20.5961 35.4291 21.4208 35.419 22.3923C35.4146 22.8823 35.3736 23.2847 35.2955 23.599C35.2783 23.6682 35.2393 23.7221 35.1787 23.7612C34.8223 23.9819 34.4255 24.4259 33.9885 25.0933C33.9698 25.1221 33.9459 25.1452 33.917 25.1625C33.5707 25.3959 33.2375 25.6215 32.9171 25.8392C32.3256 26.2413 31.7116 26.4021 31.0753 26.3213C30.8098 26.2896 30.7016 26.4051 30.7507 26.6673C30.8862 27.4098 30.7248 27.8004 30.2659 27.8393C29.8345 27.8752 29.5149 27.9343 29.3071 28.0166C29.1439 28.1016 29.0777 28.2343 29.108 28.4145C29.1945 28.9076 29.1117 29.2023 28.859 29.2989C28.4262 29.4619 27.9976 29.5712 27.5735 29.6276C27.3815 29.6564 27.3088 29.7645 27.3548 29.9519C27.4125 30.1854 27.432 30.3642 27.4133 30.4883C27.4032 30.5604 27.3672 30.6144 27.3051 30.6506C26.9112 30.884 26.4819 31.0549 26.0173 31.163C25.7661 31.2221 25.5534 31.4002 25.3789 31.6972C25.3168 31.778 25.2946 31.8688 25.3119 31.9695C25.3841 32.3978 25.304 32.6248 25.0716 32.6507C24.604 32.7012 24.2161 32.7487 23.9073 32.7935C23.4989 32.8512 23.3503 33.0782 23.4614 33.4747C23.558 33.8207 23.5011 34.1809 23.2904 34.5558C23.0653 34.5255 22.9059 34.5767 22.812 34.7092C22.2853 34.7769 21.802 34.8547 21.362 34.9426C21.222 34.97 21.1463 34.9131 21.1348 34.7717C21.1104 34.4676 21.0894 34.1612 21.0719 33.8527C21.0547 33.6192 21.0783 33.421 21.1434 33.258C21.7061 33.1816 22.2399 33.1252 22.7449 33.0893C22.8171 33.0849 22.8677 33.0496 22.8965 32.9834C22.9601 32.842 23.0025 32.6468 23.0242 32.3973C23.0444 32.1624 23.1721 32.0348 23.4072 32.0146C23.8762 31.9511 24.2412 31.7393 24.5022 31.3788C24.7734 31.0054 25.0215 30.6737 25.2468 30.3841C25.2917 30.3265 25.3479 30.2846 25.4156 30.2588C25.5988 30.1866 25.8492 30.1233 26.1666 30.0684C26.2489 30.0539 26.3138 30.0123 26.3613 29.9431C26.7567 29.3622 27.3048 29.0255 28.006 28.9332C28.1879 28.9085 28.2572 28.8078 28.2138 28.6305C28.1315 28.2803 28.1329 27.9242 28.2182 27.5622C28.2471 27.4396 28.3235 27.3906 28.4477 27.4152C29.0826 27.5896 29.5348 27.5413 29.8047 27.2704C30.0847 26.9907 30.1705 26.6124 30.0623 26.1352C30.0537 26.063 30.014 26.0207 29.9432 26.0076C29.7991 25.9788 29.7512 25.9254 29.8003 25.8475C29.8392 25.787 29.8947 25.7596 29.9669 25.7653C30.8239 25.8187 31.58 25.6998 32.2349 25.4085C32.3012 25.3797 32.3697 25.3703 32.4404 25.3804C33.0016 25.4612 33.4022 25.2218 33.6415 24.6625C33.8709 24.5818 33.8904 24.4513 33.6999 24.2712C33.5254 24.104 33.4307 23.9491 33.4165 23.8063C33.6703 23.7285 33.9589 23.7076 34.282 23.7435C34.6283 23.7824 34.7935 23.6563 34.7777 23.365C34.9162 22.8316 34.9357 22.1288 34.8361 21.2568C34.8275 21.1846 34.8282 21.1135 34.8383 21.0428C34.9031 20.6089 34.8829 20.2296 34.7777 19.9053C33.7938 19.8044 32.7044 19.7632 31.5098 19.7819C31.4376 19.7834 31.4001 19.8201 31.3972 19.8923C31.3927 19.9659 31.4016 20.0962 31.423 20.2836C31.3841 21.062 31.3841 21.8549 31.423 22.6622C31.4388 22.7861 31.3639 22.8402 31.198 22.8245C30.7001 22.7755 30.2718 22.7676 29.9124 22.8006C29.8402 22.8077 29.8042 22.7755 29.8042 22.7033C29.7739 20.6549 29.7877 18.5147 29.8454 16.2833C29.8641 15.5438 29.8432 14.8866 29.7825 14.3113C29.7739 14.219 29.7227 14.1736 29.629 14.1751C29.1457 14.1808 28.7353 14.1781 28.3976 14.1665C28.3254 14.1635 28.2894 14.1261 28.2894 14.054C28.2808 12.4048 28.2722 10.7556 28.2636 9.10637C28.2636 9.03422 28.2276 8.99826 28.1554 8.99826C26.714 9.0027 25.2214 9.03717 23.6776 9.10219C23.0816 9.08051 22.4852 9.05958 21.8877 9.03939C21.726 9.03373 21.6597 9.1108 21.6886 9.27087C21.7766 9.77693 21.7758 10.2367 21.6864 10.6504C21.6706 10.7211 21.6265 10.7563 21.5543 10.7563C19.0741 10.7649 16.4923 10.7743 13.8085 10.7844C13.7075 10.7844 13.6644 10.7346 13.6787 10.6351C13.7348 10.2416 13.7472 9.7565 13.7154 9.17976C13.7097 9.08618 13.6599 9.03914 13.566 9.03914H8.28103C8.22902 9.03914 8.20314 9.06426 8.20314 9.11474C8.1886 10.823 8.20684 12.5299 8.25737 14.2352C8.26452 14.4802 8.39095 14.6043 8.63619 14.6071C10.4497 14.6273 12.2129 14.6142 13.9254 14.5681C13.9976 14.5667 14.0343 14.6021 14.0358 14.674C14.053 15.2636 14.0387 15.8901 13.9924 16.5532C13.9867 16.6456 13.8965 16.6845 13.7218 16.67C13.2052 16.5663 12.6822 16.5271 12.1528 16.5532C11.0203 16.6094 9.76205 16.6441 8.37838 16.6572C8.27018 16.6557 8.21596 16.7091 8.21596 16.8172C8.22755 18.6322 8.25638 20.4904 8.30247 22.3918C8.25047 23.8794 8.38257 25.2489 8.69854 26.5004C8.61055 26.9212 8.6214 27.232 8.73108 27.4325C8.92307 27.728 9.12567 28.0119 9.33911 28.2845C9.46604 28.4475 9.49931 28.6997 9.43868 29.0413C9.31471 28.9923 9.24545 28.8482 9.23091 28.6088C9.21218 28.2917 9.00934 28.0553 8.62288 27.8996C8.41954 27.8233 8.27511 27.6856 8.19008 27.4866C7.81915 26.4588 7.64317 25.3011 7.6619 24.0139C7.67916 22.1327 7.69715 20.2225 7.71613 18.2837C7.74053 15.699 7.68877 13.1763 7.56036 10.7154C7.55592 10.6433 7.55518 10.5714 7.55814 10.4992C7.60004 9.29993 7.59856 8.1105 7.5537 6.93141C7.51033 5.81143 7.5298 4.80374 7.61212 3.90834C7.62518 3.69779 7.73683 3.58968 7.94756 3.58402C8.56939 3.5653 9.16757 3.54511 9.74159 3.52344C9.85423 3.519 9.92496 3.46212 9.9538 3.35253C10.0447 3.00802 10.0923 2.60785 10.0967 2.15251C10.0982 2.02988 10.1603 1.96289 10.2828 1.95132C11.1585 1.86488 12.03 1.79273 12.8971 1.7351C12.9693 1.73067 13.0226 1.69693 13.0573 1.6334C13.2276 1.32631 13.3407 0.947814 13.3972 0.498145C13.4189 0.322316 13.5192 0.231447 13.6981 0.225783C17.5258 0.100437 21.3753 0.101176 25.2463 0.227999L25.2476 0.228245ZM13.2276 2.12025C13.0112 2.17935 12.8308 2.25151 12.6866 2.33647H10.531C10.4546 2.33647 10.4075 2.3739 10.3903 2.44901C10.2749 2.98536 10.2468 3.43429 10.306 3.79604C10.1993 3.86524 10.0578 3.9012 9.88183 3.90415C9.33936 3.91129 8.77519 3.90785 8.18934 3.89332C8.02643 3.87165 7.94633 3.94232 7.94904 4.10535C7.95914 4.72666 8.00523 5.23272 8.08755 5.62329C8.10209 5.69396 8.14523 5.73361 8.21744 5.74223C9.98929 5.98011 11.8245 6.03405 13.7233 5.90451C13.9426 5.88998 14.0508 5.99243 14.0479 6.2116C14.0407 6.80262 14.0442 7.2907 14.0587 7.67561C14.0602 7.74776 14.0969 7.78298 14.1691 7.7815C16.2064 7.76131 18.1318 7.74825 19.9453 7.74259C20.2223 7.74111 20.5506 7.72313 20.9299 7.68841C21.0554 7.69703 21.1104 7.63867 21.0943 7.51332C21.0381 7.05774 21.0165 6.63393 21.0295 6.24189C21.034 6.10349 21.1052 6.03134 21.2437 6.02567C21.5754 6.00991 22.0179 6.00622 22.5704 6.01484C22.9123 6.0205 23.0833 5.85255 23.0833 5.51099C23.0819 4.97341 23.1092 4.4506 23.1657 3.94331C23.1743 3.87263 23.2147 3.8352 23.2869 3.83077C23.8365 3.80762 24.3864 3.78472 24.936 3.76157C25.0082 3.75714 25.0479 3.7197 25.0551 3.64903C25.1344 2.81446 25.1366 2.16483 25.0615 1.70063C25.0499 1.62847 25.0615 1.56075 25.096 1.49746C25.1465 1.40093 25.0556 1.30218 24.8234 1.20121C24.819 1.02834 24.8148 0.906442 24.8103 0.835766C24.8047 0.763612 24.7657 0.727658 24.6935 0.727658C21.1818 0.695891 17.5726 0.673481 13.866 0.660676C13.6971 0.659198 13.5949 0.741449 13.5586 0.907181C13.4662 1.32952 13.356 1.73387 13.2276 2.12025Z" fill="#42063A"/>
<path id="Vector_2" d="M13.866 0.660664C17.5726 0.673716 21.1816 0.695879 24.6935 0.727646C24.7658 0.727646 24.8047 0.7636 24.8104 0.835754C24.8148 0.90643 24.819 1.02808 24.8234 1.2012C24.7845 1.46224 24.7635 1.60925 24.7606 1.64225C24.746 1.90033 24.6097 2.02568 24.3514 2.01854C21.4037 1.955 18.5102 1.95303 15.6709 2.01213C14.9364 2.02666 14.2512 2.08059 13.6149 2.17442C13.4344 2.20766 13.3053 2.18944 13.2274 2.12024C13.3558 1.73386 13.4662 1.3295 13.5584 0.907169C13.5944 0.741437 13.6969 0.659187 13.8658 0.660664H13.866Z" fill="#925775"/>
<path id="Vector_3" d="M24.8234 1.20117C25.0558 1.30214 25.1465 1.40089 25.096 1.49742C25.0612 1.56096 25.0499 1.62868 25.0615 1.70058C25.1364 2.16478 25.1344 2.81417 25.0551 3.64899C25.0479 3.71966 25.0083 3.75709 24.936 3.76153C24.3864 3.78467 23.8365 3.80758 23.2869 3.83072C23.2147 3.83516 23.1743 3.87259 23.1657 3.94327C23.1095 4.4508 23.0819 4.97337 23.0833 5.51095C23.0833 5.85251 22.9123 6.02046 22.5704 6.0148C22.0179 6.00618 21.5757 6.00962 21.2437 6.02563C21.1052 6.03129 21.0337 6.10345 21.0295 6.24185C21.0165 6.63389 21.0382 7.0577 21.0944 7.51328C21.1101 7.63863 21.0554 7.69699 20.93 7.68837C20.5504 7.72285 20.2224 7.74107 19.9453 7.74255C18.1318 7.74821 16.2064 7.76126 14.1691 7.78146C14.0969 7.78293 14.0602 7.74747 14.0587 7.67557C14.0444 7.29066 14.0407 6.80258 14.0479 6.21156C14.0508 5.99239 13.9426 5.89019 13.7233 5.90447C11.8245 6.03425 9.98931 5.98007 8.21746 5.74219C8.14524 5.73357 8.10211 5.69392 8.08757 5.62324C8.00525 5.23268 7.95916 4.72661 7.94905 4.1053C7.9461 3.94253 8.0262 3.87185 8.18936 3.89327C8.77521 3.9078 9.33937 3.91125 9.88185 3.90411C10.0578 3.90115 10.1993 3.8652 10.306 3.796C10.5988 3.88244 10.9128 3.90485 11.2475 3.86298C11.6515 3.86594 12.0577 3.85732 12.466 3.83713C12.6349 3.82851 12.699 3.68789 12.6588 3.41553C12.6472 3.34486 12.6531 3.27566 12.676 3.20794C12.7813 2.90085 12.785 2.61051 12.6869 2.33643C12.8311 2.25147 13.0115 2.17931 13.2279 2.12021C13.3058 2.18941 13.4349 2.20739 13.6153 2.17439C14.2517 2.08056 14.9369 2.02663 15.6714 2.0121C18.5106 1.953 21.4044 1.95522 24.3519 2.01851C24.6102 2.02565 24.7465 1.9003 24.761 1.64222C24.764 1.60898 24.785 1.46196 24.8239 1.20117H24.8234Z" fill="#7A3A75"/>
<path id="Vector_4" d="M10.531 2.33643H12.6866C12.7847 2.61027 12.781 2.90085 12.6757 3.20794C12.6526 3.27566 12.6469 3.34486 12.6585 3.41553C12.6989 3.68789 12.6346 3.82851 12.4657 3.83713C12.0574 3.85732 11.6514 3.86594 11.2472 3.86298C10.9125 3.90485 10.5988 3.88244 10.3057 3.796C10.2466 3.43425 10.2747 2.98507 10.39 2.44897C10.4073 2.3741 10.4543 2.33643 10.5307 2.33643H10.531Z" fill="#A65773"/>
<path id="Vector_5" d="M13.7166 9.18021C13.7484 9.75695 13.736 10.2418 13.6798 10.6356C13.6653 10.7351 13.7087 10.7848 13.8097 10.7848C16.4932 10.7747 19.0752 10.7654 21.5554 10.7568C21.6276 10.7568 21.6715 10.7215 21.6875 10.6509C21.777 10.2372 21.7777 9.77739 21.6898 9.27132C21.6609 9.11126 21.7272 9.03418 21.8889 9.03984C22.4863 9.06003 23.0828 9.08097 23.6787 9.10264C24.3252 9.15608 25.1063 9.1674 26.0226 9.13711C26.2896 9.1285 26.4764 9.2467 26.5831 9.49173C26.713 9.79438 26.7022 10.064 26.5506 10.3004C26.5116 10.361 26.4562 10.3962 26.384 10.4063C26.0825 10.4482 25.7397 10.4792 25.3559 10.4994C25.177 10.5095 25.0868 10.6038 25.0853 10.7826C25.0696 11.9026 25.0875 12.9977 25.1396 14.0672C25.1553 14.396 24.9988 14.558 24.67 14.5538C22.8348 14.5307 21.0255 14.5459 19.2423 14.5991C18.9436 14.5602 18.7302 14.558 18.6018 14.5927C18.5325 14.6115 18.4985 14.6568 18.5 14.7289C18.5187 15.529 18.5318 16.3717 18.5389 17.2568C18.5434 17.7224 18.7041 17.785 19.0215 17.4449C19.0952 17.3641 19.1477 17.1753 19.1795 16.8783C19.1866 17.2545 19.2596 17.5868 19.3981 17.8751C19.4299 17.9399 19.4812 17.9803 19.5517 17.9963C19.7363 18.0352 19.8676 18.0741 19.9455 18.113C19.8994 18.1332 19.8785 18.1901 19.8827 18.2839C19.688 18.2593 19.4925 18.2413 19.2961 18.2297C19.071 18.2167 18.9584 18.3228 18.9584 18.5477C18.9569 19.2741 19.001 20.0188 19.0905 20.7815C19.1164 20.9947 19.234 21.0785 19.4432 21.0324C19.8067 20.9531 19.9894 20.7938 19.9909 20.5544C20.0126 21.0041 20.0047 21.4683 19.967 21.947C19.9613 22.0192 19.9943 22.0566 20.0665 22.0596C21.603 22.1403 23.3453 22.1613 25.2931 22.1223C25.4634 22.1915 25.7187 22.1945 26.0591 22.131C26.4761 22.4841 26.6566 23.004 26.6001 23.69C26.5698 24.0663 26.5698 24.4554 26.6001 24.8578C26.6001 25.0509 26.5099 25.1122 26.3295 25.0415C25.9457 24.8915 25.634 24.8433 25.3946 24.8967C25.3239 24.9125 25.2857 24.9565 25.28 25.0287C25.2381 25.6515 25.228 26.3499 25.2497 27.1241C25.2583 27.4312 25.1134 27.5479 24.8147 27.4743C24.5852 27.4167 24.3048 27.3994 23.9728 27.4223C23.7044 27.4396 23.5703 27.5831 23.5703 27.8525V29.7965C23.5703 29.9709 23.483 30.0625 23.3083 30.0711C22.457 30.1157 21.6742 30.162 20.9602 30.2095C20.888 30.2152 20.8491 30.2541 20.8434 30.3262C20.7813 31.1997 20.7857 32.1232 20.8565 33.0961C18.6072 33.089 16.3947 33.089 14.2189 33.0961C13.9362 33.0976 13.7831 32.957 13.7599 32.6745C13.7397 32.4266 13.6971 32.1916 13.6323 31.9695C13.6121 31.9003 13.5746 31.8419 13.5196 31.7944C13.3523 31.6504 13.1221 31.5644 12.8293 31.5371C12.5668 31.5112 12.3726 31.3822 12.2471 31.15C12.0236 30.7404 11.8266 30.3974 11.6563 30.1206C11.6189 30.0585 11.5684 30.011 11.5048 29.9778C10.7299 29.5035 10.2027 28.8533 9.92269 28.0274C9.84481 27.7996 9.65084 27.6469 9.34054 27.5689C9.20202 27.5112 9.10097 27.4132 9.03763 27.2748C8.87891 26.9232 8.76652 26.6651 8.69997 26.5006C8.384 25.2493 8.25189 23.8799 8.3039 22.392C8.26496 22.0908 8.31893 21.8926 8.46632 21.7973C8.46632 21.865 8.48727 21.901 8.52917 21.9054C9.10196 21.9918 9.8278 21.9963 10.7065 21.9184C10.8435 21.9069 10.9475 21.9357 11.018 22.0049C12.0842 22.0669 13.0898 22.0834 14.035 22.0546C14.1173 22.0517 14.1577 21.9869 14.1563 21.8601C14.5011 22.1051 14.7818 22.1613 14.9982 22.0288C15.0588 21.9913 15.0884 21.9364 15.0869 21.8645C15.0738 20.8943 15.0704 19.8188 15.0761 18.6383C15.0775 18.3787 14.9514 18.2765 14.6972 18.3312C14.5545 18.3615 14.3409 18.4176 14.0567 18.4999C14.1203 18.275 14.0271 18.1669 13.7774 18.1756C12.9636 18.2029 12.1702 18.1999 11.3968 18.1669C11.6465 17.9795 11.9348 17.9103 12.2624 17.9593C12.8685 18.0502 13.372 18.0061 13.773 17.8273C13.8393 17.7985 13.8834 17.7495 13.9051 17.6803C14.0609 17.1728 13.8201 16.8847 13.1822 16.8155C13.3395 16.7578 13.5199 16.7096 13.7232 16.6707C13.8977 16.6852 13.9879 16.646 13.9938 16.5539C14.0399 15.8908 14.0545 15.2645 14.0372 14.6747C14.0357 14.6026 13.999 14.5674 13.9268 14.5688C12.2141 14.6149 10.4511 14.6279 8.63762 14.6078C8.39238 14.6048 8.26619 14.4809 8.2588 14.2359C8.20827 12.5306 8.19028 10.8237 8.20457 9.11544C8.20457 9.06496 8.23045 9.03984 8.28246 9.03984H13.5674C13.6613 9.03984 13.7109 9.08663 13.7168 9.18046L13.7166 9.18021ZM15.1298 24.0336C15.3361 24.123 15.603 24.1712 15.9306 24.1784C16.1903 24.184 16.3202 24.0572 16.3202 23.7979V22.5676C16.3202 22.4378 16.2554 22.3765 16.1255 22.3839C15.7504 22.407 15.3528 22.4321 14.9331 22.4595C14.8148 22.4666 14.7665 22.5279 14.7882 22.6432C14.8402 22.9286 14.9008 23.3221 14.9701 23.8237C14.9846 23.9232 15.0379 23.9932 15.1303 24.0336H15.1298ZM19.3234 26.9237C19.3185 26.6885 19.1235 26.5018 18.8882 26.5067L15.5128 26.5774C15.2774 26.5823 15.0906 26.7771 15.0955 27.0123C15.1005 27.2475 15.2954 27.4342 15.5308 27.4292L18.9062 27.3585C19.1415 27.3536 19.3284 27.1591 19.3234 26.9237Z" fill="#F5F300"/>
<path id="Vector_6" d="M28.2646 9.10688C28.2732 10.7561 28.2819 12.4053 28.2905 14.0545C28.2905 14.1266 28.3265 14.1641 28.3987 14.167C28.7363 14.1786 29.1467 14.1815 29.63 14.1756C29.7239 14.1742 29.7749 14.2197 29.7836 14.3118C29.8442 14.8871 29.8652 15.5443 29.8464 16.2839C29.7888 18.5155 29.7749 20.6554 29.8053 22.7038C29.8053 22.776 29.8412 22.8082 29.9135 22.8011C30.2728 22.7679 30.7012 22.776 31.199 22.825C31.3649 22.8407 31.4401 22.7868 31.4241 22.6627C31.864 22.5834 32.1815 22.6777 32.3764 22.9459C32.6086 23.2673 32.6852 23.5694 32.6059 23.8519C32.5815 23.9413 32.6534 23.9802 32.8223 23.9686C32.5235 24.0233 32.3873 24.094 32.4131 24.1806C32.4651 24.3535 32.5805 24.4264 32.7594 24.3991C33.3697 24.304 33.6639 24.3919 33.6425 24.6628C33.4029 25.2221 33.0027 25.4614 32.4415 25.3807C32.3707 25.3706 32.3022 25.3799 32.2359 25.4087C31.5808 25.6998 30.8249 25.8188 29.9679 25.7656C29.8957 25.7599 29.8403 25.7872 29.8013 25.8478C29.7523 25.9256 29.7998 25.9791 29.9443 26.0079C30.015 26.0209 30.0547 26.0633 30.0633 26.1354C30.1715 26.6127 30.0857 26.9909 29.8058 27.2707C29.5359 27.5416 29.0836 27.5901 28.4487 27.4155C28.3247 27.3909 28.2481 27.4401 28.2192 27.5625C28.1342 27.9243 28.1327 28.2804 28.2148 28.6308C28.2582 28.8081 28.1889 28.9091 28.007 28.9334C27.3058 29.0258 26.7577 29.3624 26.3624 29.9433C26.3148 30.0125 26.2497 30.0544 26.1677 30.0687C25.8502 30.1234 25.5998 30.1869 25.4167 30.259C25.3489 30.2849 25.2927 30.3268 25.2478 30.3844C25.0228 30.6742 24.7746 31.0057 24.5033 31.379C24.242 31.7393 23.877 31.9513 23.4082 32.0149C23.1731 32.0351 23.0454 32.1626 23.0252 32.3976C23.0035 32.647 22.9611 32.8423 22.8975 32.9837C22.8687 33.0499 22.8182 33.0854 22.746 33.0895C22.241 33.1255 21.7071 33.1819 21.1444 33.2582C21.0204 33.2036 20.9243 33.1494 20.8565 33.0959C20.7858 32.123 20.7816 31.1995 20.8435 30.326C20.8492 30.2539 20.8881 30.215 20.9603 30.2093C21.6746 30.1618 22.4571 30.1155 23.3084 30.0709C23.4829 30.0623 23.5704 29.9707 23.5704 29.7963V27.8524C23.5704 27.5827 23.7045 27.4394 23.9729 27.4221C24.3046 27.399 24.5853 27.4165 24.8148 27.4741C25.1135 27.5477 25.2584 27.4308 25.2498 27.1239C25.2281 26.3497 25.2382 25.6513 25.2801 25.0285C25.2858 24.9564 25.3243 24.9125 25.3947 24.8965C25.6343 24.8431 25.9458 24.8916 26.3296 25.0413C26.51 25.112 26.6002 25.0507 26.6002 24.8576C26.5699 24.4555 26.5699 24.0661 26.6002 23.6898C26.6564 23.0038 26.4762 22.4839 26.0592 22.1308C26.3419 22.1207 26.6774 22.1185 27.0655 22.1244C27.1883 22.1259 27.2494 22.0653 27.2494 21.9426V17.9596C27.2494 17.7823 27.1614 17.7016 26.9854 17.7176C26.4718 17.7651 26.0008 17.789 25.5722 17.789C25.6269 17.4287 25.6277 17.1108 25.5744 16.8355C25.5658 16.7921 25.5392 16.7707 25.4943 16.7707C23.6404 16.7751 21.8629 16.7722 20.1618 16.7621C21.9277 16.7146 23.7131 16.6966 25.5182 16.7079C25.6755 16.6791 25.7477 16.5377 25.7346 16.2841C25.7073 15.7578 25.6784 15.2671 25.6481 14.8115C25.6424 14.7393 25.6047 14.6955 25.5355 14.6795C25.4243 14.6536 25.2202 14.645 24.923 14.6536C23.0489 14.6061 21.1553 14.5881 19.2419 14.5994C21.0251 14.546 22.8344 14.531 24.6696 14.5541C24.9987 14.5586 25.1552 14.3963 25.1392 14.0675C25.0872 12.9978 25.0692 11.9029 25.0849 10.7829C25.0864 10.6041 25.1766 10.5098 25.3556 10.4997C25.7393 10.4795 26.0819 10.4485 26.3836 10.4066C26.4558 10.3965 26.5112 10.3613 26.5502 10.3007C26.7018 10.0643 26.7126 9.79469 26.5827 9.49203C26.476 9.24701 26.2892 9.1288 26.0222 9.13742C25.1061 9.16771 24.3248 9.15614 23.6783 9.10294C25.2222 9.03818 26.7148 9.00346 28.1562 8.99902C28.2284 8.99902 28.2644 9.03498 28.2644 9.10713L28.2646 9.10688Z" fill="#CDAA00"/>
<path id="Vector_7" d="M19.2419 14.5992C21.155 14.5876 23.0488 14.6056 24.923 14.6533C23.0328 14.6563 21.1796 14.6634 19.3632 14.675C19.291 14.675 19.2478 14.7102 19.2333 14.7809C19.1524 15.1803 19.1012 15.6812 19.0797 16.2838C19.0696 16.5663 19.1239 16.7133 19.2422 16.7249C19.2062 16.7724 19.1852 16.8236 19.1793 16.8783C19.1475 17.1753 19.095 17.3642 19.0213 17.4449C18.7039 17.7853 18.5429 17.7225 18.5387 17.2568C18.5316 16.3717 18.5185 15.529 18.4998 14.7289C18.4983 14.6568 18.5323 14.6115 18.6016 14.5928C18.73 14.5583 18.9434 14.5603 19.2422 14.5992H19.2419Z" fill="#A97F24"/>
<path id="Vector_8" d="M19.3631 14.6748C21.1796 14.6632 23.0328 14.6561 24.9229 14.6531C25.2202 14.6445 25.4242 14.6531 25.5354 14.679C25.6046 14.6948 25.6421 14.7388 25.648 14.811C25.6783 15.2666 25.7072 15.7574 25.7345 16.2836C25.7476 16.5373 25.6754 16.6786 25.5181 16.7074C24.7073 16.5331 23.7155 16.4639 22.5423 16.4998C21.7213 16.5257 20.8917 16.5439 20.0535 16.554C19.8501 16.5555 19.7057 16.6067 19.6207 16.7074C19.4952 16.7131 19.3688 16.719 19.2419 16.7247C19.1236 16.7131 19.0693 16.5661 19.0794 16.2836C19.1011 15.681 19.1524 15.1801 19.233 14.7807C19.2475 14.71 19.2907 14.6748 19.3629 14.6748H19.3631Z" fill="#271824"/>
<path id="Vector_9" d="M22.5423 16.4999C23.7153 16.464 24.7073 16.5332 25.5182 16.7075C23.7133 16.696 21.9277 16.7139 20.1617 16.7617C20.0015 16.7487 19.8211 16.7307 19.6207 16.7075C19.7058 16.6066 19.8502 16.5553 20.0535 16.5541C20.8918 16.544 21.7214 16.526 22.5423 16.4999Z" fill="#982258"/>
<path id="Vector_10" d="M12.1542 16.5541C12.6836 16.5283 13.2066 16.5672 13.7232 16.6709C13.5199 16.7098 13.3395 16.758 13.1822 16.8157C12.6196 16.8258 12.0423 16.8287 11.4508 16.8243C11.1449 16.8213 10.8743 16.8785 10.6392 16.9952C10.4849 16.9533 10.3989 17.009 10.3816 17.1616C10.2966 17.3722 10.202 17.566 10.0982 17.7433C10.0435 17.8371 10.0405 17.9632 10.0896 18.1218C9.59171 18.0671 9.13007 18.0361 8.70443 18.0287C8.63221 18.0272 8.58538 18.0612 8.56369 18.1304C8.46264 18.5831 8.43307 19.1027 8.47496 19.6895C8.52697 20.4073 8.52401 21.1102 8.46634 21.7977C8.3192 21.8928 8.26497 22.091 8.30392 22.3924C8.25783 20.4911 8.22899 18.6328 8.21741 16.8179C8.21741 16.7098 8.27163 16.6563 8.37983 16.6578C9.76349 16.6448 11.0215 16.6103 12.1542 16.5539V16.5541Z" fill="#C99E01"/>
<path id="Vector_11" d="M19.2419 16.7248C19.3689 16.7191 19.495 16.7132 19.6207 16.7075C19.8214 16.7307 20.0015 16.7486 20.1617 16.7617C21.8629 16.7718 23.6404 16.7747 25.4943 16.7703C25.5389 16.7703 25.5658 16.792 25.5744 16.8351C25.6279 17.1104 25.6271 17.4283 25.5722 17.7886C25.4265 17.8923 25.3334 18.0033 25.2929 18.1215C25.2237 18.0654 25.1364 18.0501 25.0309 18.0762C23.6746 17.9292 22.304 17.8903 20.9189 17.9595C20.6318 17.974 20.3431 18.0309 20.0533 18.1304C20.0173 18.1247 19.9811 18.1188 19.9451 18.1132C19.8672 18.0743 19.7358 18.0353 19.5512 17.9964C19.4805 17.9807 19.4292 17.9403 19.3977 17.8753C19.2592 17.5869 19.1862 17.2547 19.1791 16.8784C19.1847 16.8238 19.2057 16.7725 19.2419 16.725V16.7248Z" fill="#D5FF42"/>
<path id="Vector_12" d="M11.4508 16.8245C12.0423 16.829 12.6195 16.826 13.1822 16.8159C13.8198 16.8851 14.0609 17.1735 13.9051 17.6808C13.8834 17.75 13.8395 17.799 13.773 17.8278C13.372 18.0066 12.8685 18.0504 12.2624 17.9598C11.9349 17.9108 11.6462 17.98 11.3968 18.1674C11.1067 18.1341 10.9056 18.1731 10.793 18.2841C10.7454 18.2482 10.6941 18.2272 10.6394 18.2213C10.6106 17.8118 10.6106 17.4032 10.6394 16.9952C10.8746 16.8785 11.1452 16.8216 11.451 16.8243L11.4508 16.8245Z" fill="#E8FF56"/>
<path id="Vector_13" d="M10.6391 16.9949C10.6103 17.403 10.6103 17.8115 10.6391 18.2211C10.4314 18.2469 10.2483 18.2139 10.0895 18.1216C10.0405 17.963 10.0434 17.8369 10.0982 17.7431C10.2019 17.5658 10.2966 17.372 10.3816 17.1614C10.3988 17.0087 10.4849 16.9531 10.6391 16.9949Z" fill="#F3E300"/>
<path id="Vector_14" d="M27.2493 17.9596V21.9426C27.2493 22.0652 27.1879 22.1255 27.0654 22.1243C26.6773 22.1187 26.3418 22.1206 26.0591 22.1307C25.7185 22.1943 25.4632 22.1913 25.2931 22.1221C25.2744 20.7728 25.2744 19.4394 25.2931 18.1216C25.3335 18.0034 25.4264 17.8924 25.5723 17.7887C26.001 17.7887 26.4719 17.7648 26.9856 17.7173C27.1616 17.7015 27.2496 17.782 27.2496 17.9593L27.2493 17.9596Z" fill="#F8F7CC"/>
<path id="Vector_15" d="M20.9191 17.9595C22.3042 17.8903 23.6748 17.9292 25.0311 18.0762C24.8551 18.1383 24.6207 18.1713 24.3277 18.1757C22.8733 18.1959 21.4485 18.1809 20.0535 18.1304C20.3436 18.0309 20.6319 17.974 20.9191 17.9595Z" fill="#D7B900"/>
<path id="Vector_16" d="M8.70442 18.0288C9.13007 18.036 9.59171 18.067 10.0896 18.1219C10.2483 18.2142 10.4314 18.2472 10.6392 18.2214C10.6939 18.227 10.7452 18.248 10.7927 18.2842C10.9066 18.7166 10.9638 19.2032 10.9638 19.7438C10.9638 20.4934 10.9818 21.2474 11.018 22.0056C10.9473 21.9364 10.8435 21.9076 10.7065 21.9192C9.82782 21.997 9.10198 21.9928 8.52919 21.9062C8.48729 21.9017 8.46634 21.8658 8.46634 21.798C8.52401 21.1105 8.52697 20.4077 8.47496 19.6898C8.43306 19.103 8.46264 18.5834 8.56369 18.1308C8.58538 18.0616 8.63221 18.0276 8.70442 18.0291V18.0288Z" fill="#F8F7CC"/>
<path id="Vector_17" d="M25.0311 18.0762C25.1363 18.0504 25.2236 18.0654 25.2931 18.1215C25.2744 19.439 25.2744 20.7725 25.2931 22.122C23.3453 22.1609 21.6032 22.14 20.0665 22.0592C19.9943 22.0563 19.9613 22.0188 19.967 21.9467C20.0044 21.4682 20.0123 21.004 19.9909 20.5541C20.0429 19.7065 20.0066 18.9497 19.8827 18.2836C19.8782 18.1897 19.8992 18.1329 19.9455 18.1127C19.9815 18.1183 20.0177 18.1242 20.0537 18.1299C21.449 18.1804 22.8735 18.1954 24.3279 18.1752C24.6207 18.1708 24.8554 18.1378 25.0314 18.0757L25.0311 18.0762ZM22.5337 20.1758C22.5482 20.085 22.5482 19.9948 22.5337 19.9054C22.0735 19.8564 21.6299 19.8261 21.2027 19.8146C21.1305 19.8116 21.1017 19.8456 21.1162 19.9163C21.1956 20.3098 21.254 20.8289 21.2915 21.4731C21.2959 21.5453 21.3218 21.6086 21.3693 21.6635C21.4416 21.7472 21.6932 21.7716 22.1248 21.7371C22.2603 21.7255 22.3449 21.6541 22.3779 21.5231C22.4745 21.1325 22.5265 20.6834 22.5337 20.1758ZM23.5163 20.6169C23.5553 20.7063 23.6065 20.7459 23.6699 20.7358C23.9094 20.6969 24.011 20.7971 23.975 21.0365C23.9072 21.4835 24.0125 21.7241 24.291 21.7588C24.5522 21.792 24.69 21.6765 24.7043 21.4128C24.7302 21.1274 24.7267 20.7735 24.6934 20.3512C24.6777 20.1694 24.6099 20.0601 24.4901 20.0224C24.1409 19.9648 23.8387 19.9842 23.5834 20.0808C23.4145 20.1455 23.3921 20.3243 23.5163 20.6171V20.6169Z" fill="#321C40"/>
<path id="Vector_18" d="M11.3966 18.1672C12.17 18.2005 12.9634 18.2032 13.7772 18.1759C14.0269 18.1673 14.1198 18.2754 14.0564 18.5002C14.0377 19.4286 14.0348 20.3836 14.0478 21.3654C14.0508 21.5861 14.0868 21.7511 14.156 21.8606C14.1575 21.9875 14.1171 22.0525 14.0348 22.0552C13.0898 22.084 12.0842 22.0675 11.0178 22.0054C10.9818 21.2472 10.9635 20.4932 10.9635 19.7436C10.9635 19.203 10.9066 18.7164 10.7925 18.284C10.9051 18.1729 11.1062 18.134 11.3963 18.1672H11.3966ZM12.812 19.7436C12.6144 19.6889 12.1808 19.7046 11.5114 19.7911C11.4407 19.8012 11.4082 19.8416 11.4141 19.9122C11.4328 20.323 11.4631 20.7535 11.505 21.2031C11.5166 21.3314 11.5706 21.4425 11.6674 21.5361C11.9055 21.6269 12.3346 21.6535 12.9552 21.6161C13.2466 21.5989 13.388 21.4437 13.3794 21.1512C13.3722 20.5991 13.3247 20.1117 13.2367 19.6894C13.2049 19.5379 13.0637 19.5562 12.8125 19.7436H12.812Z" fill="#10191E"/>
<path id="Vector_19" d="M19.2961 18.2296C19.4922 18.2411 19.6877 18.2591 19.8826 18.2837C20.0066 18.9496 20.0429 19.7066 19.9908 20.5542C19.9894 20.7936 19.807 20.9529 19.4432 21.0322C19.2339 21.0783 19.1164 20.9948 19.0905 20.7813C19.001 20.0186 18.9572 19.2742 18.9584 18.5475C18.9584 18.3226 19.071 18.2167 19.2961 18.2296Z" fill="#FFFEFC"/>
<path id="Vector_20" d="M14.697 18.3312C14.9509 18.2765 15.077 18.3787 15.0758 18.6383C15.0701 19.8188 15.0736 20.8942 15.0867 21.8645C15.0881 21.9367 15.0586 21.9913 14.9979 22.0288C14.7815 22.1615 14.5008 22.1051 14.156 21.8601C14.0867 21.7505 14.0508 21.5855 14.0478 21.3648C14.0347 20.383 14.0377 19.428 14.0564 18.4996C14.3406 18.4174 14.5543 18.3612 14.697 18.3309V18.3312Z" fill="#D5FF42"/>
<path id="Vector_21" d="M13.2362 19.6895C13.3242 20.1118 13.3718 20.5991 13.379 21.1513C13.3876 21.4438 13.2461 21.599 12.9548 21.6162C12.3344 21.6536 11.9051 21.627 11.667 21.5362C12.0204 21.4886 12.3472 21.4086 12.6474 21.2961C12.7152 21.2702 12.7527 21.2212 12.7601 21.149C12.7919 20.8491 12.838 20.5206 12.8986 20.163C12.9245 20.0059 12.8956 19.866 12.8121 19.7434C13.0632 19.556 13.2045 19.538 13.2362 19.6892V19.6895Z" fill="#5F2875"/>
<path id="Vector_22" d="M12.8121 19.7436C12.8958 19.8662 12.9247 20.0059 12.8986 20.1632C12.8379 20.5208 12.7918 20.8493 12.76 21.1492C12.7529 21.2214 12.7154 21.2704 12.6474 21.2962C12.3472 21.4088 12.0204 21.4888 11.667 21.5364C11.5704 21.4428 11.5161 21.3317 11.5045 21.2034C11.4626 20.7537 11.4323 20.3233 11.4136 19.9125C11.4079 19.8418 11.4402 19.8015 11.511 19.7914C12.1804 19.7049 12.6139 19.6889 12.8116 19.7438L12.8121 19.7436Z" fill="#E930FF"/>
<path id="Vector_23" d="M34.7786 19.9058C34.7989 20.1681 34.788 20.3469 34.7461 20.4422C34.7173 20.5084 34.6675 20.5353 34.5967 20.5222C34.3875 20.4863 34.1748 20.4998 33.9584 20.5634C33.2658 20.6153 32.6166 20.6483 32.0106 20.6628C31.7017 20.67 31.5063 20.5439 31.424 20.2843C31.4023 20.0969 31.3937 19.9664 31.3981 19.893C31.4011 19.8209 31.4385 19.7842 31.5107 19.7827C32.7054 19.764 33.7947 19.8051 34.7786 19.9061V19.9058Z" fill="#F0EE00"/>
<path id="Vector_24" d="M21.2028 19.8151C21.6299 19.8267 22.0736 19.857 22.5337 19.906C22.1125 19.8988 21.7517 19.9023 21.4518 19.9168C21.3088 19.9225 21.2758 19.986 21.3522 20.1072C21.5267 20.3884 21.6033 20.6095 21.5816 20.7711C21.573 20.8432 21.539 20.9001 21.4799 20.942C21.3832 21.0097 21.3559 21.1474 21.3975 21.3549C21.4121 21.4256 21.4537 21.4717 21.523 21.4933C21.7653 21.5682 21.9846 21.5446 22.1808 21.4219C22.2414 21.3845 22.2644 21.3303 22.2501 21.2596C22.1663 20.8272 22.2609 20.466 22.5335 20.1764C22.5263 20.6839 22.4743 21.1328 22.3777 21.5236C22.3445 21.6549 22.2602 21.7261 22.1246 21.7376C21.6933 21.7721 21.4414 21.7477 21.3692 21.664C21.3216 21.6093 21.2955 21.5458 21.2913 21.4736C21.2538 20.8292 21.1954 20.3103 21.1161 19.9168C21.1015 19.8461 21.1306 19.8124 21.2026 19.8151H21.2028Z" fill="#A933C2"/>
<path id="Vector_25" d="M21.4514 19.9163C21.7516 19.9018 22.1122 19.8983 22.5334 19.9054C22.548 19.9948 22.548 20.085 22.5334 20.1758C22.2608 20.4657 22.1662 20.8267 22.25 21.2591C22.2643 21.3298 22.2414 21.3837 22.1807 21.4214C21.9846 21.5441 21.7652 21.5677 21.5229 21.4928C21.4537 21.4712 21.4118 21.4251 21.3975 21.3544C21.3556 21.1468 21.3829 21.0092 21.4798 20.9415C21.5389 20.8996 21.573 20.8427 21.5816 20.7706C21.6033 20.609 21.5269 20.3879 21.3521 20.1066C21.2757 19.9855 21.3087 19.9222 21.4517 19.9163H21.4514Z" fill="#FF2DED"/>
<path id="Vector_26" d="M34.7787 19.9058C34.8839 20.2301 34.9041 20.6093 34.8393 21.0432C34.8292 21.1139 34.8285 21.1853 34.8371 21.2572C34.9367 22.1295 34.9172 22.8321 34.7787 23.3655C34.7932 22.1142 34.7858 21.4877 34.757 21.4863C34.7311 21.4863 34.7124 22.0002 34.7008 23.0281C34.7023 23.1002 34.6907 23.1017 34.6663 23.0325C34.6259 22.9158 34.4622 22.8825 34.1751 22.933C33.6471 23.0153 33.3807 22.8488 33.3765 22.4336C33.3736 22.0645 33.3701 21.7266 33.3657 21.4195C33.3642 21.3474 33.3844 21.2819 33.4263 21.2228C33.5648 21.0324 33.7423 20.8127 33.9587 20.5633C34.1751 20.4997 34.388 20.4862 34.597 20.5221C34.6678 20.5352 34.7175 20.5084 34.7464 20.4421C34.7883 20.3471 34.7991 20.1683 34.7789 19.9058H34.7787Z" fill="#D9CA00"/>
<path id="Vector_27" d="M24.4901 20.0225C24.4771 20.057 24.4635 20.0752 24.449 20.0767C24.3767 20.0797 24.3494 20.1164 24.3666 20.187C24.4142 20.3543 24.3427 20.4725 24.1525 20.5417C23.9563 20.6123 23.7441 20.6375 23.5161 20.6173C23.3921 20.3247 23.4143 20.1459 23.5831 20.0809C23.8385 19.9844 24.1409 19.9649 24.4899 20.0225H24.4901Z" fill="#FF5FF1"/>
<path id="Vector_28" d="M24.4901 20.0227C24.6099 20.0601 24.6777 20.1697 24.6935 20.3515C24.7268 20.7738 24.7302 21.1277 24.7043 21.4131C24.6898 21.6768 24.552 21.7923 24.291 21.7591C24.0125 21.7246 23.9073 21.4838 23.975 21.0368C24.011 20.7974 23.9095 20.6972 23.6699 20.7361C23.6063 20.7462 23.5553 20.7066 23.5164 20.6172C23.7443 20.6374 23.9563 20.6123 24.1527 20.5416C24.3433 20.4724 24.4145 20.3542 24.3669 20.187C24.3497 20.1163 24.377 20.0796 24.4492 20.0766C24.4638 20.0752 24.4773 20.0572 24.4904 20.0225L24.4901 20.0227Z" fill="#A933C2"/>
<path id="Vector_29" d="M31.4242 20.2842C31.5065 20.5437 31.702 20.6698 32.0108 20.6627C32.6169 20.6482 33.2661 20.6152 33.9586 20.5632C33.7422 20.8127 33.5648 21.0323 33.4263 21.2227C33.3844 21.2818 33.3642 21.3473 33.3656 21.4194C33.3701 21.7265 33.3735 22.0646 33.3765 22.4335C33.3809 22.8487 33.6471 23.0152 34.175 22.9329C34.4622 22.8825 34.6258 22.9157 34.6663 23.0324C34.6907 23.1016 34.7022 23.1001 34.7008 23.028C34.7123 22.0001 34.7311 21.4862 34.757 21.4862C34.7858 21.4876 34.7929 22.1139 34.7786 23.3654C34.7944 23.6567 34.6293 23.7828 34.283 23.7439C33.9599 23.7079 33.6713 23.7288 33.4174 23.8067C33.2414 23.8414 33.043 23.8953 32.8222 23.969C32.6534 23.9805 32.5811 23.9416 32.6058 23.8522C32.6852 23.5698 32.6087 23.2676 32.3763 22.9462C32.1816 22.6781 31.8642 22.5837 31.424 22.663C31.385 21.8558 31.385 21.0629 31.424 20.2844L31.4242 20.2842Z" fill="#FAD100"/>
<path id="Vector_30" d="M14.9329 22.4595C15.3529 22.4321 15.7502 22.4068 16.1253 22.3839C16.2552 22.3767 16.32 22.438 16.32 22.5676V23.7979C16.32 24.0574 16.1902 24.1843 15.9304 24.1783C15.6028 24.1712 15.3359 24.1229 15.1296 24.0335C15.0372 23.9932 14.9839 23.9232 14.9694 23.8237C14.9001 23.3221 14.8395 22.9286 14.7875 22.6432C14.7658 22.5279 14.8141 22.4666 14.9324 22.4595H14.9329Z" fill="#CA8D00"/>
<path id="Vector_31" d="M33.4175 23.8064C33.432 23.9492 33.5264 24.1041 33.7009 24.2713C33.8914 24.4516 33.872 24.5821 33.6425 24.6626C33.6642 24.3915 33.3699 24.3036 32.7594 24.3989C32.5805 24.4262 32.4651 24.3536 32.4131 24.1805C32.3873 24.094 32.5235 24.0234 32.8223 23.9684C33.0431 23.8948 33.2415 23.8409 33.4175 23.8062V23.8064Z" fill="#A21975"/>
<path id="Vector_32" d="M8.69998 26.501C8.76628 26.6652 8.87892 26.9233 9.03764 27.2752C9.10123 27.4136 9.20204 27.5116 9.34055 27.5692C9.65085 27.6471 9.84482 27.8 9.92271 28.0278C10.2027 28.8537 10.7299 29.5039 11.5048 29.9782C11.5684 30.0114 11.6186 30.0589 11.6564 30.121C11.8267 30.3978 12.0236 30.7408 12.2471 31.1503C12.3726 31.3823 12.5668 31.5114 12.8293 31.5375C13.1221 31.5648 13.3523 31.6507 13.5196 31.7948C13.5744 31.8423 13.6121 31.9007 13.6323 31.9699C13.6971 32.1918 13.7397 32.4269 13.7599 32.6749C13.7831 32.9574 13.9359 33.098 14.2189 33.0965C16.3947 33.0894 18.6072 33.0894 20.8565 33.0965C20.9242 33.15 21.0201 33.2039 21.1443 33.2588C21.0795 33.4218 21.0556 33.6198 21.0729 33.8535C19.6892 33.9949 18.3033 33.9949 16.9155 33.8535C16.8967 33.8521 16.8758 33.87 16.8526 33.9077C16.8324 33.6957 16.7631 33.5696 16.6448 33.5292C16.4689 33.4686 16.3064 33.5797 16.1578 33.8621C16.1031 33.7686 16.0444 33.7159 15.9826 33.7043C15.345 33.5932 14.7 33.5349 14.0478 33.5292C13.8142 33.509 13.6135 33.4167 13.4462 33.2524C13.2212 32.9613 12.9888 32.7651 12.7494 32.6643C12.5027 32.5607 12.3773 32.4164 12.3728 32.2319C12.3714 32.1598 12.3482 32.0957 12.3036 32.0393C11.9602 31.6069 11.5361 31.1981 11.0311 30.8132C10.6803 30.545 10.4647 30.2641 10.3841 29.9698C10.3654 29.9006 10.3257 29.8459 10.265 29.8055C9.9577 29.5964 9.68289 29.3421 9.44037 29.0421C9.501 28.7006 9.46773 28.4481 9.3408 28.2854C9.12736 28.013 8.92451 27.7288 8.73276 27.4333C8.62309 27.2329 8.61224 26.9223 8.70023 26.5012L8.69998 26.501Z" fill="#9D0B9B"/>
<path id="Vector_33" d="M15.5131 26.5776L18.8884 26.5069C19.1238 26.502 19.3188 26.6887 19.3237 26.9238C19.3286 27.159 19.1418 27.3538 18.9064 27.3587L15.5311 27.4294C15.2957 27.4343 15.1007 27.2477 15.0958 27.0125C15.0909 26.7773 15.2777 26.5825 15.5131 26.5776Z" fill="#982258"/>
<path id="Vector_34" d="M16.6448 33.5285C16.7632 33.5689 16.8324 33.695 16.8526 33.907C16.8381 34.9075 16.859 35.7515 16.9155 36.439C16.7553 36.5127 16.5569 36.5306 16.3203 36.4932C16.0114 36.4068 15.6688 36.372 15.2922 36.3893C15.22 36.3922 15.1609 36.3661 15.1148 36.3115C15.0298 36.209 14.8826 36.163 14.6734 36.1731C14.6071 36.176 14.5607 36.1472 14.5348 36.0866C14.457 35.9037 14.3128 35.8229 14.1021 35.8445C14.6273 35.7293 15.2109 35.7207 15.853 35.8187C16.0679 35.8519 16.1645 35.7596 16.143 35.5419C16.091 35.0417 16.0962 34.4815 16.1581 33.8617C16.3067 33.5792 16.4691 33.4682 16.6451 33.5287L16.6448 33.5285Z" fill="#48083E"/>
<path id="Vector_35" d="M16.9155 33.8531C18.3033 33.9944 19.6892 33.9944 21.0729 33.8531C21.0901 34.1617 21.1111 34.468 21.1357 34.7721C21.1473 34.9135 21.223 34.9704 21.363 34.943C21.8029 34.8551 22.2862 34.7773 22.8129 34.7096C22.9268 35.0758 22.877 35.5515 22.6636 36.1366C22.5423 36.4696 22.6101 36.6454 22.8669 36.6644C23.1035 36.6599 23.3199 36.621 23.5161 36.5477C23.8205 36.5188 24.1229 36.544 24.4228 36.6233C24.7519 36.7112 25.0627 36.7429 25.3557 36.7183C25.5578 36.6678 25.6451 36.7456 25.6177 36.9518C25.5945 37.1175 25.5795 37.3101 25.5724 37.529C25.5652 37.7149 25.4691 37.7942 25.2845 37.7669C24.7349 37.6846 24.4189 37.7676 24.3366 38.0156C24.3713 37.7735 24.2377 37.6157 23.9363 37.542C23.6548 37.4728 23.5107 37.5544 23.5035 37.7863C23.4919 38.1077 23.3253 38.2707 23.0037 38.2749C22.8218 38.2764 22.6042 38.3015 22.3501 38.3505C22.1452 38.3909 22.0651 38.5135 22.1097 38.7182C22.2078 39.1622 22.0454 39.3993 21.6227 39.4296C21.3442 39.4382 21.078 39.4131 20.8242 39.354C20.4749 39.2718 20.3401 39.0016 20.4195 38.5431C20.4382 38.4293 20.5033 38.3586 20.6142 38.3311C20.9287 38.2532 21.2109 38.2185 21.4603 38.2271C21.5325 38.2301 21.5981 38.2106 21.6572 38.1688C21.7539 38.0981 21.811 37.975 21.8283 37.7989C21.8354 37.7267 21.8125 37.6662 21.759 37.6172C21.6075 37.4802 21.5195 37.3108 21.4951 37.1091C21.4445 36.6984 21.2124 36.495 20.7983 36.4994C19.4292 36.5181 18.135 36.4979 16.9157 36.4388C16.8595 35.7513 16.8386 34.9071 16.8529 33.9068C16.876 33.8693 16.897 33.8514 16.9157 33.8526L16.9155 33.8531Z" fill="#CDAA00"/>
<path id="Vector_36" d="M23.2221 34.5555C23.1501 34.9507 23.1048 35.2475 23.0861 35.446C23.0545 35.7996 23.214 35.9569 23.5649 35.918C24.523 35.8161 25.3602 35.8109 26.0764 35.903C26.1484 35.9116 26.2016 35.9476 26.2361 36.0109C26.3973 36.3027 26.4922 36.6972 26.5211 37.1944C26.5267 37.2877 26.5765 37.3296 26.6699 37.3195C28.5256 37.104 30.3056 37.0988 32.0101 37.3045C32.0821 37.3131 32.1331 37.3498 32.1634 37.4143C32.2827 37.6702 32.3438 38.0223 32.3468 38.4708C32.3483 38.6146 32.4202 38.6948 32.5625 38.7123C32.9854 38.8071 33.4349 38.8589 33.9111 38.8675C34.2865 38.8746 34.4871 39.0953 34.513 39.5294C34.5332 39.9175 34.736 40.1401 35.1215 40.1978C35.8811 40.3142 36.3364 40.8632 36.4874 41.8447C36.5032 41.9497 36.5643 41.9992 36.6708 41.9935C37.1384 41.9302 37.4908 42.0422 37.7282 42.3299C37.9884 42.6476 38.1417 43.0083 38.1878 43.4122C38.2051 43.4811 38.2489 43.52 38.3194 43.5287C38.4574 43.5459 38.6963 43.5553 39.0357 43.5567C39.3334 43.5567 39.5463 43.6286 39.6743 43.7722C39.7174 44.2724 39.741 44.6856 39.7455 45.0119C39.5858 46.0452 39.5471 47.0871 39.6289 48.1379C39.639 48.2716 39.711 48.342 39.8446 48.3492C41.0946 48.4095 42.1885 48.3571 43.1265 48.1918C43.1655 48.5354 43.1775 48.756 43.1632 48.8538C43.1531 48.9242 43.1122 48.9587 43.0402 48.9572C40.999 48.9385 38.891 48.935 36.7162 48.9464C34.4923 48.9865 32.2807 49.0045 30.0813 49.0003C20.4681 48.9801 10.8665 48.9594 1.27621 48.9377C0.994249 48.8917 0.728804 48.8715 0.480119 48.8774C0.408151 48.8789 0.365019 48.8444 0.350724 48.774C0.276044 48.4147 0.530398 48.2536 1.11452 48.2911C1.4756 48.3083 1.75312 48.3098 1.94734 48.2953C2.09694 48.2837 2.17384 48.2039 2.17828 48.0559C2.20859 47.0282 2.2675 45.9597 2.35524 44.8501C2.37249 44.6216 2.3545 44.4571 2.30126 44.3563C2.35006 44.0574 2.40404 43.7577 2.46319 43.4572C2.61132 43.328 2.72346 43.1497 2.79986 42.9226C2.93222 42.533 3.16587 42.207 3.50106 41.944C3.55578 41.8965 3.59817 41.8398 3.62849 41.7736C3.76232 41.4259 3.98956 41.1621 4.31021 40.9823C4.68706 40.7725 5.12232 40.6223 5.6155 40.5317C5.72345 40.5044 5.80405 40.4425 5.85729 40.3463C6.18681 39.7528 6.47518 39.31 6.72263 39.0182C6.76872 38.962 6.82762 38.9377 6.89959 38.9448C7.44182 38.9894 8.11665 38.98 8.92358 38.9167C8.99555 38.9111 9.04435 38.8744 9.07023 38.8069C9.25286 38.3296 9.43352 37.9273 9.61171 37.5997C9.73396 37.3742 9.92251 37.2498 10.1771 37.2269C11.2847 37.1249 12.2563 37.1508 13.0921 37.3045C13.1914 37.3232 13.2848 37.3094 13.3726 37.2636C13.8889 37.0006 14.0644 36.6009 13.899 36.0651C13.8687 35.9658 13.9227 35.8912 14.0609 35.841C14.2709 35.8195 14.4149 35.8998 14.4925 36.0823C14.5184 36.1426 14.5645 36.1714 14.6305 36.1685C14.839 36.1584 14.9859 36.2044 15.0707 36.3064C15.1168 36.3611 15.1757 36.3869 15.2477 36.384C15.623 36.3667 15.9646 36.4012 16.2725 36.4874C15.7689 36.4916 15.4246 36.5844 15.239 36.7654C14.9945 36.8115 14.9255 36.973 15.032 37.2505C15.1772 37.6315 15.0845 37.847 14.7538 37.8972C14.3799 37.8455 14.0819 37.8563 13.8606 37.9295C13.5557 38.0287 13.4428 38.2334 13.5219 38.5439C13.5924 38.8241 13.6464 39.1088 13.6838 39.3977C13.5931 39.4809 13.5034 39.4809 13.4142 39.3977C13.2833 39.2497 13.1027 39.1928 12.8727 39.2273C12.8022 39.2388 12.746 39.274 12.7044 39.3329C12.647 39.5026 12.6317 39.7065 12.659 39.9451C12.6893 40.2111 12.797 40.3879 12.9826 40.4755C13.1179 40.6625 13.1926 40.8989 13.2069 41.1848C13.1796 41.5066 13.1027 41.7977 12.976 42.0578C12.9444 42.1225 12.9284 42.1907 12.9284 42.2626C12.9341 42.813 12.9752 43.2494 13.0514 43.5713C13.0687 43.6417 13.1125 43.6732 13.183 43.6661C13.4923 43.6373 13.8238 43.6365 14.1778 43.6639C14.3288 43.9456 14.4553 44.2 14.5576 44.427C14.5864 44.4933 14.6 44.5622 14.5985 44.6339C14.5797 45.8181 14.5928 46.9901 14.6374 48.15C14.6404 48.2219 14.6776 48.2571 14.7496 48.2556C15.8845 48.2297 17.1526 48.2477 18.5535 48.3095C18.6901 48.3152 18.7571 48.2492 18.7542 48.1113C18.7095 46.6052 18.8138 45.2311 19.0669 43.9894C19.1115 43.7653 19.2375 43.602 19.4445 43.5001C19.8085 43.3218 20.0249 43.125 20.0939 42.9093C20.107 43.0731 20.1479 43.0453 20.2169 42.8253C20.2931 42.5852 20.4572 42.4732 20.7089 42.489C20.7996 42.4961 20.9418 42.6003 21.136 42.8015C20.9921 43.1319 20.9216 43.4511 20.9245 43.7587C20.926 43.7803 21.1915 43.8385 21.7206 43.9333C22.1522 43.9936 22.3139 43.8321 22.2062 43.4481C22.1128 43.1147 22.1307 42.884 22.2601 42.7561C23.6539 42.7606 25.0314 42.7382 26.3922 42.6894C26.4469 42.6865 26.4713 42.7123 26.4656 42.767C26.4124 43.3102 26.3591 43.8606 26.3059 44.4184C26.2815 44.6728 26.1701 44.7188 25.9714 44.5563C25.6377 44.2847 25.2983 44.1933 24.953 44.2825C24.884 44.3012 24.8143 44.3027 24.7438 44.2869C24.449 44.2236 24.1964 44.2288 23.9864 44.3019C23.7044 44.312 23.4168 44.315 23.1233 44.3105C22.9463 44.3076 22.8563 44.3945 22.8536 44.5713C22.848 45.103 22.8327 45.6091 22.8083 46.089C22.8184 46.7529 22.8349 47.4538 22.8578 48.1908C22.8623 48.3287 22.9325 48.4007 23.0693 48.4063C23.4619 48.425 23.8035 48.4041 24.0941 48.3438C25.1672 48.4199 26.4035 48.4386 27.8032 48.3999C28.0607 48.3913 28.1901 48.2583 28.1916 48.001C28.1973 47.0681 28.1953 46.287 28.1852 45.6576C28.1721 43.8308 28.1931 42.0164 28.2478 40.214C28.255 39.9727 28.3622 39.79 28.5692 39.6663C29.2108 39.2782 29.8452 38.8571 30.4722 38.403C30.7253 38.2191 30.7152 38.0501 30.4419 37.8965C30.3728 37.9108 30.1089 37.9108 29.65 37.8965C28.8544 37.8721 28.2015 37.8677 27.6908 37.8834C27.5225 37.9063 27.4253 38.0019 27.3995 38.1701C27.3507 38.4402 27.206 38.587 26.9657 38.6099C26.5558 38.6515 26.1378 38.7013 25.7122 38.7586C25.4058 38.7788 25.3259 38.9231 25.4726 39.192C25.6897 39.5902 25.6424 40.0047 25.3301 40.4359C25.2885 40.4948 25.233 40.5344 25.164 40.5543C24.8892 40.6376 24.575 40.6334 24.221 40.5413C23.9263 40.4652 23.7175 40.5672 23.5953 40.8474C23.4254 41.2325 23.1644 41.5465 22.812 41.7896C22.5172 41.9937 22.3193 41.9233 22.2187 41.5783C22.1884 41.4791 22.1303 41.3628 22.044 41.2291C22.1029 40.9388 22.1958 40.6721 22.3223 40.4292C22.8531 40.3862 23.3335 40.2862 23.7636 40.1296C23.8311 40.1052 23.8757 40.0584 23.8974 39.9894C23.9635 39.7767 23.996 39.4743 23.9945 39.0817C24.1183 39.0761 24.2368 39.0802 24.3504 39.0948C24.992 39.1824 25.3156 39.2098 25.3215 39.1768C25.4078 38.671 25.5704 38.1994 25.8093 37.7625C25.8438 37.6992 25.861 37.6317 25.861 37.5598C25.8595 37.317 25.8374 37.0878 25.7942 36.872C25.7612 36.711 25.6634 36.6191 25.5007 36.596C24.6994 36.481 24.0147 36.4623 23.4466 36.5398C23.2509 36.6132 23.0353 36.6519 22.7994 36.6563C22.5433 36.6376 22.4758 36.4623 22.5966 36.1303C22.8095 35.5467 22.8591 35.0726 22.7454 34.7074C22.8388 34.5752 22.9978 34.5242 23.2223 34.5543L23.2221 34.5555ZM8.72024 39.5053C8.09027 39.5427 7.53277 39.5772 7.04797 39.6087C6.59052 39.6375 6.34307 39.8796 6.30561 40.3352C6.26962 40.775 6.24744 41.2168 6.23882 41.661C6.03893 42.7475 6.03597 43.8823 6.23019 45.0651C6.31941 46.192 6.34603 47.2474 6.31004 48.232C6.30709 48.3039 6.34159 48.3369 6.41356 48.3312C6.95579 48.2866 7.60326 48.2788 8.35547 48.3076C8.42744 48.3105 8.46416 48.276 8.4654 48.2041C8.50138 46.4909 8.56398 44.6139 8.6532 42.5732C8.69486 41.6059 8.79197 40.7299 8.94453 39.9454C9.3544 40.7243 9.52052 41.6002 9.44288 42.5732C9.43721 42.6451 9.47024 42.6796 9.54221 42.6766C10.4931 42.6451 11.4545 42.6286 12.4271 42.6271C12.6386 42.6271 12.7492 42.5207 12.7593 42.308C12.7751 41.9472 12.7593 41.6268 12.7118 41.3466C12.6728 41.1225 12.5405 40.9959 12.3147 40.9671C11.8284 40.9067 11.2734 40.86 10.6491 40.827C10.5771 40.8225 10.5347 40.7853 10.5217 40.7149C10.4613 40.3642 10.4721 39.982 10.554 39.5681C10.5828 39.4243 10.6698 39.3526 10.815 39.3526C11.025 39.3526 11.2271 39.326 11.4213 39.2728C11.4903 39.2541 11.5578 39.2585 11.6241 39.2859C11.8528 39.3836 12.0673 39.3117 12.2671 39.0704C12.4973 38.7887 12.6497 38.4272 12.7246 37.9861C12.7808 37.6987 12.6642 37.58 12.3751 37.6305C11.722 37.744 11.0028 37.8332 10.2175 37.898C10.0305 37.9122 9.89096 38.0021 9.79903 38.1674C9.65657 38.5668 9.45447 38.9579 9.19272 39.34C9.12075 39.445 8.96326 39.5004 8.72024 39.506V39.5053ZM13.3316 39.1847C13.5212 39.0743 13.5576 38.784 13.4132 38.536C13.2688 38.288 12.9979 38.1762 12.8086 38.2866C12.6191 38.3969 12.5826 38.6872 12.7271 38.9352C12.8715 39.1832 13.1424 39.295 13.3316 39.1847ZM31.529 39.6755C31.342 39.707 31.1514 39.8013 30.9572 39.9579C30.4783 40.346 30.0648 40.7772 29.7165 41.2515C29.4821 41.6524 29.3697 42.1511 29.3798 42.7475C29.4015 44.0584 29.4042 45.3337 29.3885 46.5741C29.3712 47.1462 29.3719 47.6808 29.3907 48.178C29.3922 48.2499 29.4289 48.2866 29.5006 48.2879C30.0773 48.3009 30.7435 48.3044 31.4987 48.2987C31.6296 48.2972 31.6959 48.2312 31.6971 48.1005C31.7057 47.2021 31.7035 46.4239 31.6907 45.7657C31.7195 44.5339 31.7792 43.3124 31.8699 42.1009C31.9734 41.9989 32.0634 41.8731 32.1395 41.7236C32.2201 41.5007 32.3919 41.3535 32.6551 41.2816C32.9169 41.2096 33.0477 41.3096 33.0477 41.5812C33.0433 43.0068 33.0463 44.4196 33.0564 45.8196C33.0103 45.9102 32.9413 46.0085 32.8493 46.1149C32.8018 46.1695 32.7853 46.2321 32.7998 46.3025C32.9408 47.0053 32.9386 47.6227 32.7934 48.1544C32.7747 48.2233 32.8005 48.2642 32.871 48.2773C33.3645 48.3649 34.1987 48.38 35.3739 48.3226C35.6401 48.3095 35.7825 48.1709 35.801 47.9064C35.8585 47.0425 35.7887 46.2752 35.5918 45.6039C35.5558 44.7201 35.5708 43.8397 35.6371 42.963C35.6731 42.4816 35.6551 41.9425 35.5832 41.3461C35.5701 41.2771 35.5284 41.2412 35.4579 41.2382C35.0091 41.2266 34.6567 41.1648 34.4006 41.0528C34.3346 41.024 34.305 40.9737 34.3121 40.9018C34.3451 40.5381 34.2971 40.1694 34.1674 39.7959C34.1214 39.6636 34.0178 39.6082 33.8567 39.6299C33.0741 39.5208 32.3729 39.4999 31.7528 39.5673C31.6606 39.5774 31.586 39.6134 31.5285 39.6752L31.529 39.6755ZM2.99383 45.7117C2.77522 46.2868 2.71557 47.108 2.81465 48.1758C2.83634 48.3972 2.95785 48.5107 3.17942 48.5164C3.86978 48.5351 4.6178 48.5531 5.4235 48.5703C5.64508 48.5745 5.755 48.4662 5.75352 48.2448C5.7449 47.2216 5.67022 46.3232 5.52924 45.55C5.44002 44.0352 5.46245 42.5577 5.59603 41.1175C5.6017 41.0456 5.56941 41.004 5.49892 40.9924C5.03433 40.9363 4.58404 41.1124 4.14828 41.5207C3.69232 41.9474 3.36279 42.3599 3.15995 42.7581C3.12693 42.8229 3.11041 42.8911 3.11041 42.963C3.10745 43.8727 3.06876 44.789 2.99383 45.7117ZM19.2303 45.4423C19.1268 46.3666 19.0879 47.305 19.1137 48.2578C19.1167 48.3297 19.1539 48.3677 19.2259 48.3721C20.1622 48.4354 21.1375 48.4647 22.1517 48.4605C22.2683 48.4605 22.3402 48.3347 22.3674 48.0832C22.4825 47.0413 22.4615 46.1789 22.3048 45.4963C22.3163 45.2692 22.289 45.0535 22.2227 44.8496C22.1709 44.6885 22.0608 44.6169 21.8927 44.6341C21.605 44.6585 21.3497 44.6225 21.1266 44.5263C20.6059 44.3007 20.0607 44.1194 19.4911 43.983C19.4048 43.9613 19.3545 43.9946 19.34 44.0823C19.2725 44.5105 19.2357 44.9639 19.2301 45.4426L19.2303 45.4423ZM9.32211 45.4963C9.26888 46.3688 9.23511 47.244 9.22082 48.1221C9.21934 48.2098 9.26247 48.2507 9.35021 48.245C10.6405 48.163 11.9228 48.1603 13.1973 48.2364C13.5872 48.2911 13.8445 48.2773 13.9697 48.1955C14.0301 48.1566 14.0619 48.1014 14.0646 48.0295C14.1122 46.9229 14.1566 45.8098 14.1985 44.6903C14.2071 44.4489 14.0935 44.3519 13.8576 44.3992C13.1354 44.5442 12.6608 44.5659 12.4335 44.464C12.3675 44.4337 12.2982 44.4172 12.2265 44.4145C11.8252 44.4002 11.2857 44.4194 10.6082 44.4726C10.3033 44.497 9.99891 44.461 9.69551 44.3647C9.54591 44.3403 9.45028 44.4014 9.40862 44.5479C9.31669 44.8671 9.28786 45.1833 9.32236 45.4965L9.32211 45.4963Z" fill="#621361"/>
<path id="Vector_37" d="M16.9155 36.439C18.1348 36.4981 19.429 36.5183 20.7981 36.4995C21.2122 36.4951 21.4446 36.6985 21.4949 37.1093C21.5195 37.3112 21.6075 37.4804 21.7589 37.6173C21.8123 37.6663 21.8353 37.7269 21.8281 37.7991C21.8109 37.9749 21.7539 38.0983 21.6571 38.1689C21.5979 38.2108 21.5324 38.2303 21.4601 38.2273C21.2105 38.2187 20.9285 38.2532 20.614 38.3312C20.5029 38.3586 20.438 38.4292 20.4193 38.5432C20.3399 39.0018 20.4748 39.2719 20.824 39.3542C21.0779 39.4133 21.3441 39.4384 21.6226 39.4298V39.4665C21.031 39.615 20.4358 39.7081 19.8372 39.7455C18.1173 39.9085 16.5707 39.8861 15.1972 39.6785C14.7585 39.6123 14.5963 39.4047 14.7102 39.0557C14.7824 38.8582 14.8891 38.6917 15.0306 38.5563C15.208 38.5174 15.2773 38.5895 15.2383 38.7725C15.2095 38.908 15.2346 39.0335 15.314 39.1488C15.5262 39.3953 15.6948 39.3916 15.8205 39.138C16.0312 38.7112 16.0283 38.2657 15.8119 37.8015C15.7815 37.7368 15.7404 37.6789 15.6884 37.6286C15.4547 37.3979 15.3197 37.1125 15.2837 36.7724C15.4698 36.5907 15.8153 36.4978 16.3203 36.4934C16.5569 36.5308 16.7553 36.5128 16.9155 36.4392V36.439Z" fill="#F0EE00"/>
<path id="Vector_38" d="M25.5766 36.6032C25.7397 36.6263 25.8378 36.7184 25.8709 36.88C25.9142 37.0962 25.9364 37.3262 25.9379 37.5698C25.9379 37.6419 25.9206 37.7096 25.8859 37.7729C25.6463 38.2113 25.4834 38.6841 25.3969 39.1914C25.3912 39.2246 25.0664 39.197 24.4231 39.1091C24.3092 39.0946 24.1902 39.0904 24.066 39.0961C24.0068 39.0313 24.0177 38.9367 24.0985 38.8129C24.2617 38.5607 24.3408 38.2947 24.3366 38.015C24.4189 37.767 24.7349 37.6843 25.2845 37.7663C25.4691 37.7936 25.5652 37.7143 25.5724 37.5284C25.5795 37.3092 25.5948 37.1169 25.6177 36.9512C25.6451 36.745 25.5578 36.6672 25.3557 36.7177C25.0629 36.7423 24.7519 36.7106 24.4229 36.6227C24.1227 36.5434 23.8205 36.5182 23.5161 36.547C24.0859 36.4692 24.7728 36.4879 25.5763 36.6032H25.5766Z" fill="#B34565"/>
<path id="Vector_39" d="M15.2836 36.772C15.3196 37.1121 15.4547 37.3977 15.6883 37.6282C15.7403 37.6787 15.7815 37.7363 15.8118 37.8011C16.0282 38.2653 16.0312 38.7108 15.8205 39.1375C15.695 39.3912 15.5262 39.3949 15.314 39.1484C15.2346 39.0331 15.2095 38.9075 15.2383 38.7721C15.2772 38.5891 15.208 38.517 15.0305 38.5559C15.0305 38.3007 14.9526 38.0845 14.7969 37.9072C15.1286 37.8567 15.2218 37.6405 15.0761 37.2586C14.9694 36.9803 15.0387 36.8183 15.2839 36.772H15.2836Z" fill="#DCB300"/>
<path id="Vector_40" d="M23.9361 37.5419C24.2376 37.6155 24.3712 37.7734 24.3364 38.0154C24.3408 38.2952 24.2615 38.5612 24.0983 38.8133C24.0175 38.9372 24.0066 39.0318 24.0658 39.0965C24.0673 39.49 24.0347 39.7934 23.9684 40.0069C23.9467 40.0761 23.9021 40.1229 23.8344 40.1476C23.403 40.3047 22.9209 40.4049 22.3886 40.4482C22.5039 40.2249 22.5012 40.0087 22.38 39.7996C22.2299 39.54 21.9775 39.4292 21.6226 39.4667V39.43C22.0452 39.3997 22.2077 39.1625 22.1096 38.7185C22.0647 38.5139 22.1448 38.3912 22.3499 38.3509C22.6037 38.3018 22.8216 38.2767 23.0035 38.2753C23.3252 38.2708 23.492 38.108 23.5033 37.7867C23.5105 37.5547 23.6549 37.4732 23.9361 37.5424V37.5419Z" fill="#F0F414"/>
<path id="Vector_41" d="M12.4118 37.6392C12.7019 37.5887 12.8187 37.7077 12.7623 37.996C12.6873 38.4386 12.5343 38.8011 12.3034 39.0838C12.1027 39.3258 11.8878 39.398 11.6583 39.3C11.5921 39.2726 11.5243 39.2682 11.455 39.2869C11.2603 39.3404 11.0575 39.367 10.847 39.367C10.7013 39.367 10.6141 39.4391 10.585 39.5832C10.5027 39.9984 10.4918 40.3818 10.5525 40.7335C10.5655 40.8041 10.6079 40.8416 10.6801 40.846C11.3064 40.8792 11.8632 40.926 12.3509 40.9866C12.5774 41.0154 12.7103 41.1422 12.7492 41.3671C12.7968 41.6483 12.8128 41.9697 12.7968 42.3314C12.7867 42.5447 12.6755 42.6516 12.4636 42.6516C11.4883 42.653 10.5236 42.6695 9.57004 42.7013C9.49782 42.7043 9.4648 42.6695 9.47046 42.5976C9.54835 41.6217 9.38174 40.7431 8.97063 39.9617C8.98073 39.6676 8.90581 39.5206 8.74561 39.5206C8.98936 39.515 9.14735 39.4593 9.21956 39.3542C9.48205 38.9707 9.68489 38.5787 9.82759 38.1778C9.92002 38.012 10.0598 37.9219 10.2476 37.9074C11.0353 37.8426 11.7567 37.7532 12.4118 37.6392Z" fill="#A65773"/>
<path id="Vector_42" d="M14.7966 37.9074C14.9523 38.0847 15.0302 38.3009 15.0302 38.556C14.8887 38.6915 14.782 38.8579 14.7098 39.0554C14.5959 39.4044 14.7581 39.612 15.1968 39.6782C16.5704 39.8858 18.117 39.9082 19.8368 39.7452C20.4355 39.7078 21.0307 39.6147 21.6222 39.4662C21.9771 39.4288 22.2295 39.5398 22.3796 39.7992C22.5009 40.0082 22.5036 40.2244 22.3882 40.4478C22.2613 40.6913 22.1681 40.9588 22.109 41.2501C21.5103 41.292 20.9151 41.3338 20.3236 41.3755C18.4985 41.3496 16.6229 41.3466 14.6967 41.3668C14.5107 41.3683 14.3482 41.3474 14.2097 41.304C14.1996 41.2681 14.1636 41.2499 14.1015 41.2499C14.015 40.767 13.9896 40.3057 14.0259 39.8659C14.0315 39.7937 14.015 39.7275 13.9761 39.6669C13.9255 39.5891 13.8412 39.5039 13.7229 39.4118C13.6855 39.1219 13.6313 38.8365 13.5605 38.5555C13.4812 38.2443 13.5945 38.0386 13.9004 37.9392C14.1225 37.8655 14.4212 37.8549 14.7963 37.9067L14.7966 37.9074Z" fill="#E8FF56"/>
<path id="Vector_43" d="M29.7382 37.9071C30.1983 37.9214 30.4633 37.9214 30.5325 37.9071C30.8066 38.0613 30.8167 38.2307 30.5628 38.4152C29.9339 38.8707 29.2975 39.2931 28.654 39.6824C28.4462 39.8063 28.3387 39.9895 28.3316 40.2316C28.2769 42.0394 28.2559 43.8592 28.2687 45.6916C28.2355 45.8401 28.1302 45.8943 27.9528 45.8539C27.8359 45.828 27.7184 45.8236 27.6001 45.8408C26.821 46.0095 26.091 46.0859 25.41 46.0701C24.8214 46.0556 24.5284 45.7716 24.5313 45.2181C24.5313 45.1459 24.5032 45.0868 24.447 45.0408C24.2609 44.8866 24.1823 44.725 24.2111 44.5564C24.3396 44.3921 24.2883 44.317 24.0576 44.3315C24.2683 44.2579 24.5215 44.253 24.8172 44.3165C24.8879 44.3323 24.9579 44.331 25.0272 44.3121C25.3735 44.2227 25.7139 44.3143 26.0488 44.5867C26.248 44.7497 26.3598 44.7034 26.3842 44.4483C26.4377 43.889 26.491 43.3369 26.5445 42.7919C26.5501 42.7372 26.5257 42.7111 26.4708 42.7141C25.1058 42.7631 23.7244 42.7855 22.3264 42.7811C21.9355 42.8084 21.5597 42.8237 21.1988 42.8264C21.0041 42.6245 20.8612 42.52 20.7702 42.5129C20.5178 42.4971 20.3532 42.6094 20.2768 42.8503C20.2075 43.0709 20.1664 43.099 20.1533 42.9345C20.1807 42.7845 20.2376 42.6043 20.3244 42.394C20.4774 42.0236 20.4774 41.684 20.3244 41.3754C20.9159 41.3336 21.5111 41.2917 22.1098 41.2501C22.1963 41.3841 22.2547 41.501 22.285 41.6003C22.3861 41.9463 22.5845 42.0169 22.8802 41.8123C23.2337 41.5688 23.4957 41.2538 23.6657 40.8674C23.7885 40.5862 23.9975 40.484 24.2932 40.5603C24.6481 40.6527 24.9634 40.6569 25.2389 40.5734C25.3082 40.5532 25.3636 40.5135 25.4055 40.4544C25.7185 40.022 25.7661 39.6061 25.5485 39.2066C25.4013 38.937 25.4814 38.7922 25.7888 38.772C26.2159 38.7144 26.6349 38.6646 27.0463 38.6228C27.2873 38.5996 27.4322 38.4526 27.4813 38.1817C27.5072 38.013 27.6045 37.9172 27.7733 37.8941C28.2855 37.8783 28.9406 37.8825 29.7384 37.9071H29.7382Z" fill="#A65773"/>
<path id="Vector_44" d="M13.4526 38.5482C13.5976 38.7969 13.5608 39.0882 13.3708 39.1988C13.1808 39.3094 12.9092 39.1973 12.7643 38.9486C12.6193 38.6999 12.6561 38.4086 12.8461 38.298C13.0361 38.1874 13.3077 38.2995 13.4526 38.5482Z" fill="#4D1142"/>
<path id="Vector_45" d="M12.9094 39.2417C13.1404 39.2072 13.3213 39.2641 13.4526 39.4126C12.8697 39.3434 12.6758 39.5222 12.8705 39.9489C12.9427 40.1061 12.9925 40.2878 13.0198 40.4939C12.8338 40.406 12.7256 40.2287 12.6952 39.962C12.6679 39.7226 12.6829 39.518 12.7406 39.3478C12.7825 39.2887 12.8387 39.2535 12.9094 39.2419V39.2417Z" fill="#AB6678"/>
<path id="Vector_46" d="M13.4527 39.4124C13.5421 39.4962 13.6323 39.4962 13.7233 39.4124C13.8416 39.5048 13.9259 39.5897 13.9764 39.6676C14.0154 39.7281 14.0319 39.7944 14.0262 39.8665C13.9902 40.3061 14.0154 40.7676 14.1019 41.2505C13.8204 41.2274 13.5347 41.2123 13.2449 41.2052C13.2306 40.9183 13.1554 40.6812 13.0199 40.4938C12.9925 40.2876 12.9427 40.1059 12.8705 39.9488C12.6758 39.522 12.8698 39.3432 13.4527 39.4124Z" fill="#CBE600"/>
<path id="Vector_47" d="M8.74561 39.5205C8.90581 39.5205 8.98074 39.6675 8.97063 39.9616C8.81758 40.7486 8.72022 41.6273 8.67857 42.5975C8.5891 44.6447 8.52625 46.5273 8.49027 48.2457C8.48879 48.3179 8.45207 48.3523 8.37985 48.3494C7.62517 48.3206 6.97598 48.3285 6.43203 48.3733C6.35981 48.3789 6.32531 48.3459 6.32826 48.2738C6.36425 47.2863 6.33763 46.2274 6.24816 45.0973C6.23954 44.9143 6.24668 44.8321 6.26985 44.8508C6.32457 44.8983 6.35291 44.886 6.35414 44.8141C6.37583 44.0327 6.37928 43.1541 6.36499 42.1781C6.36203 41.9575 6.32605 41.7925 6.25679 41.6829C6.26541 41.2374 6.28784 40.7942 6.32383 40.3531C6.36129 39.8961 6.60948 39.6532 7.0684 39.6244C7.55468 39.5927 8.11367 39.5582 8.74561 39.5208V39.5205ZM8.33647 42.3414C8.34288 42.0094 8.07867 41.7351 7.74643 41.729L7.0583 41.7157C6.72606 41.7093 6.4515 41.9732 6.44509 42.3052L6.3884 45.2497C6.38199 45.5817 6.64621 45.856 6.97844 45.8624L7.66658 45.8757C7.99882 45.8821 8.27338 45.6181 8.27954 45.2862L8.33623 42.3417L8.33647 42.3414Z" fill="#F0EE00"/>
<path id="Vector_48" d="M33.9584 39.646C34.2007 39.8566 34.2954 40.0661 34.2419 40.2752C34.2246 40.3459 34.1899 40.4057 34.1381 40.4547C33.8944 40.6306 33.5279 40.7365 33.0386 40.7727C32.6923 40.7985 32.4217 40.9968 32.227 41.3674C32.1679 41.4612 32.1708 41.5873 32.2356 41.7459C32.1592 41.8958 32.069 42.0219 31.965 42.1244C32.0473 41.3792 32.0582 40.6626 31.9976 39.975C31.9874 39.8669 31.8627 39.7726 31.6232 39.6918C31.6808 39.6298 31.756 39.5938 31.8482 39.5837C32.47 39.516 33.1734 39.5369 33.9582 39.6465L33.9584 39.646Z" fill="#98854F"/>
<path id="Vector_49" d="M33.9584 39.6457C34.1201 39.624 34.2238 39.6797 34.2699 39.8121C34.3998 40.1869 34.4481 40.5568 34.4149 40.9215C34.4077 40.9937 34.4373 41.0442 34.5036 41.073C34.7604 41.1855 35.1138 41.2473 35.5641 41.2589C35.6349 41.2619 35.6768 41.2978 35.6896 41.367C35.7618 41.9652 35.7798 42.506 35.7438 42.9889C35.6775 43.8683 35.6622 44.7511 35.6985 45.6379C35.6551 45.7416 35.6228 45.829 35.6011 45.8994C35.5794 45.9686 35.5326 46.0053 35.4604 46.0097C34.8299 46.0745 34.1713 46.1085 33.4844 46.1114C33.2984 46.1114 33.1887 46.0257 33.1554 45.8541C33.1453 44.4499 33.1424 43.033 33.1468 41.6029C33.1468 41.3306 33.0154 41.2303 32.7529 41.3023C32.489 41.3744 32.3164 41.5222 32.2356 41.7455C32.1708 41.5869 32.1678 41.4608 32.227 41.367C32.4217 40.9966 32.6923 40.7984 33.0386 40.7723C33.5276 40.7364 33.8941 40.6302 34.1381 40.4544C34.1901 40.4054 34.2246 40.3455 34.2418 40.2749C34.2953 40.0658 34.2007 39.856 33.9584 39.6457Z" fill="#9F576D"/>
<path id="Vector_50" d="M31.6231 39.6912C31.8627 39.7719 31.9874 39.8663 31.9975 39.9744C32.0582 40.6619 32.0473 41.3785 31.965 42.1237C31.874 43.339 31.8142 44.5644 31.7853 45.7996C31.7217 45.9033 31.6707 45.9395 31.6318 45.9077C31.3604 45.6814 31.054 45.5012 30.712 45.3672C30.4997 45.298 30.3324 45.3571 30.2099 45.5445C29.9459 45.8457 29.8067 46.1291 29.7921 46.3943C29.782 46.5817 29.6768 46.6539 29.4762 46.6105C29.4919 45.3664 29.4892 44.0871 29.4675 42.7724C29.4574 42.1742 29.5701 41.6738 29.8052 41.2717C30.1544 40.7959 30.5692 40.3635 31.0496 39.9741C31.2443 39.817 31.4356 39.7224 31.6231 39.6909V39.6912ZM31.3429 42.1732C31.3249 42.0082 31.0676 41.9008 30.7681 41.9333C30.4687 41.9659 30.2405 42.1259 30.2585 42.2909C30.2764 42.4559 30.5338 42.5633 30.8332 42.5308C31.1327 42.4983 31.3609 42.3382 31.3429 42.1732Z" fill="#FFF931"/>
<path id="Vector_51" d="M5.61179 41.1378C5.47771 42.5823 5.45529 44.0641 5.54475 45.5835C5.45676 45.9108 5.1891 46.0548 4.74176 46.0159C4.36516 46.0174 3.98634 46.0174 3.60555 46.0159C3.29821 46.0159 3.09685 45.9258 3.00171 45.7455C3.07663 44.8201 3.11558 43.901 3.11853 42.9884C3.11853 42.9163 3.13505 42.8478 3.16832 42.783C3.37166 42.3838 3.70217 41.9699 4.15961 41.5419C4.59684 41.1326 5.04837 40.9558 5.51444 41.0122C5.58517 41.0238 5.61771 41.0656 5.61179 41.1375V41.1378Z" fill="#A65773"/>
<path id="Vector_52" d="M13.2448 41.2051C13.5349 41.2122 13.8206 41.2275 14.1018 41.2504C14.1639 41.2504 14.1999 41.2684 14.21 41.3046C13.9243 41.2499 13.8117 41.4373 13.8723 41.8668C13.9071 42.1263 13.9943 42.2618 14.1343 42.2733C14.1804 42.2733 14.2073 42.2509 14.2144 42.2064C14.2504 42.065 14.2672 42.0919 14.2642 42.2864C14.2585 42.7577 14.2433 43.2264 14.2189 43.692C13.8639 43.6647 13.5315 43.6654 13.2212 43.6943C13.1504 43.7014 13.1066 43.6696 13.0891 43.5992C13.0127 43.2764 12.9715 42.8388 12.9656 42.2866C12.9656 42.2145 12.9814 42.146 13.0131 42.0813C13.1401 41.8202 13.2172 41.5284 13.2448 41.2056V41.2051Z" fill="#B34565"/>
<path id="Vector_53" d="M14.2103 41.3044C14.3488 41.3478 14.5112 41.3685 14.6973 41.3672C16.6234 41.347 18.499 41.35 20.3241 41.3758C20.4772 41.6844 20.4772 42.0238 20.3241 42.3944C20.2376 42.6049 20.1807 42.7849 20.1531 42.9349C20.0838 43.1511 19.8667 43.3486 19.5017 43.5274C19.2939 43.6299 19.1677 43.7934 19.1228 44.0182C18.869 45.2638 18.7642 46.6418 18.8091 48.1526C18.812 48.291 18.745 48.3573 18.6077 48.3516C17.2024 48.2896 15.9306 48.2716 14.7922 48.2974C14.72 48.2989 14.6825 48.2635 14.6795 48.1915C14.6349 47.0282 14.6219 45.8526 14.6406 44.6646C14.6421 44.5925 14.6283 44.5233 14.5994 44.457C14.4969 44.2292 14.37 43.9741 14.2186 43.6917C14.2433 43.226 14.2583 42.7576 14.264 42.286C14.267 42.0915 14.2502 42.0646 14.2142 42.206C14.2071 42.2506 14.1802 42.273 14.1341 42.273C13.9941 42.2614 13.9069 42.1259 13.8721 41.8664C13.8115 41.4369 13.9241 41.2495 14.2098 41.3042L14.2103 41.3044Z" fill="#E930FF"/>
<path id="Vector_54" d="M6.25684 41.6831C6.3261 41.7927 6.36208 41.9577 6.36504 42.1783C6.37958 43.1543 6.37589 44.0329 6.3542 44.8143C6.35272 44.8864 6.32462 44.8985 6.2699 44.851C6.24674 44.8323 6.23959 44.9145 6.24822 45.0975C6.05351 43.911 6.05622 42.773 6.25684 41.6831Z" fill="#846109"/>
<path id="Vector_55" d="M7.05856 41.7154L7.74669 41.7287C8.07893 41.7351 8.34314 42.0095 8.33674 42.3412L8.28005 45.2857C8.27364 45.6177 7.99908 45.8817 7.66708 45.8753L6.97895 45.862C6.64671 45.8556 6.3825 45.5812 6.38891 45.2495L6.4456 42.305C6.452 41.973 6.72657 41.709 7.05856 41.7154Z" fill="#FDFF8D"/>
<path id="Vector_56" d="M30.7684 41.9335C31.0678 41.901 31.3251 42.0084 31.3431 42.1734C31.3611 42.3384 31.1329 42.4985 30.8334 42.531C30.534 42.5635 30.2767 42.4561 30.2587 42.2911C30.2407 42.1261 30.4689 41.966 30.7684 41.9335Z" fill="#F0EE00"/>
<path id="Vector_57" d="M22.326 42.7812C22.1961 42.9096 22.1781 43.141 22.2717 43.4755C22.3799 43.8604 22.2175 44.0226 21.7847 43.9621C21.2538 43.867 20.9877 43.8086 20.9862 43.787C20.9832 43.4784 21.054 43.1585 21.1984 42.8268C21.559 42.8239 21.9348 42.8088 22.326 42.7815V42.7812Z" fill="#85405E"/>
<path id="Vector_58" d="M19.5492 44.0118C20.1205 44.1487 20.6675 44.3304 21.1897 44.5568C21.4133 44.6533 21.6693 44.6895 21.9579 44.6649C22.1268 44.6476 22.2372 44.7195 22.2892 44.8811C22.3555 45.0857 22.3831 45.3019 22.3715 45.5297C22.1421 45.6652 21.9466 45.7193 21.7849 45.692C21.3622 45.6171 20.8572 45.6171 20.2699 45.692C19.9697 45.7294 19.6993 45.7474 19.4583 45.7462C19.3227 45.7432 19.2658 45.6531 19.2872 45.4758C19.2929 44.9958 19.3299 44.541 19.3977 44.1113C19.4122 44.0234 19.4625 43.9901 19.5492 44.0118Z" fill="#B68237"/>
<path id="Vector_59" d="M23.1915 44.3405C23.4857 44.3449 23.7744 44.3419 24.0571 44.3318C24.288 44.3173 24.339 44.3924 24.2106 44.5567C23.9582 44.7224 23.8572 44.8982 23.9077 45.0844C24.0376 45.3612 24.1009 45.6134 24.0982 45.8412C24.0967 45.9751 23.993 46.0667 23.7867 46.1157C23.488 46.1517 23.1843 46.1547 22.8755 46.1244C22.9001 45.6429 22.9152 45.1354 22.9208 44.602C22.9238 44.4247 23.014 44.3375 23.1915 44.3402V44.3405Z" fill="#D2B901"/>
<path id="Vector_60" d="M2.30713 44.386C2.36061 44.487 2.37861 44.6519 2.36135 44.8812C2.27337 45.9941 2.21421 47.066 2.1839 48.0966C2.17946 48.2451 2.10232 48.3251 1.95222 48.3367C1.75751 48.3512 1.479 48.3498 1.11694 48.3323C1.37228 48.3409 1.63847 48.3215 1.9155 48.2739C2.04957 48.2508 2.02887 48.1508 1.85265 47.9732C1.79497 47.9299 1.75948 47.873 1.74667 47.8023C1.60815 47.0961 1.65079 46.2122 1.87434 45.1514C1.90465 45.0058 1.99264 44.9063 2.1383 44.8529C2.20608 44.827 2.23861 44.778 2.23566 44.7059C2.23122 44.5776 2.25513 44.4709 2.30713 44.3857V44.386Z" fill="#D7B900"/>
<path id="Vector_61" d="M9.72379 44.3945C10.0282 44.491 10.3333 44.5272 10.6392 44.5026C11.3187 44.4491 11.8597 44.4297 12.2624 44.4442C12.3346 44.4472 12.4039 44.4637 12.4702 44.4939C12.6982 44.5964 13.1743 44.5747 13.8984 44.4292C14.1351 44.3816 14.2489 44.4789 14.2403 44.721C14.1984 45.8439 14.1538 46.9605 14.1062 48.0706C14.1033 48.1428 14.0717 48.1982 14.0111 48.2371C13.8856 48.3193 13.6273 48.3329 13.2362 48.2782C13.2231 48.2435 13.2096 48.2255 13.195 48.224C13.1228 48.2211 13.0883 48.1836 13.0913 48.1115C13.1186 47.3518 13.1519 46.613 13.1908 45.8952C13.1938 45.823 13.159 45.7848 13.0871 45.7806C12.0916 45.7272 10.879 45.7339 9.44898 45.8001C9.42581 45.8016 9.39279 45.7114 9.34941 45.5297C9.31466 45.2155 9.34374 44.8983 9.43592 44.5782C9.47782 44.4311 9.57369 44.3698 9.72379 44.3945Z" fill="#B68237"/>
<path id="Vector_62" d="M24.2109 44.5566C24.1821 44.7253 24.2607 44.8869 24.4468 45.041C24.503 45.0871 24.5311 45.1462 24.5311 45.2183C24.5281 45.7719 24.8212 46.0559 25.4097 46.0704C26.0907 46.0862 26.8208 46.0098 27.5998 45.8411C27.7181 45.8239 27.8357 45.8281 27.9525 45.8542C28.13 45.8946 28.2352 45.8404 28.2685 45.6919C28.2786 46.3233 28.2808 47.1069 28.2749 48.0424C28.2734 48.3005 28.1435 48.4337 27.8852 48.4424C26.4814 48.4813 25.2414 48.4626 24.1651 48.3862C24.0251 47.7922 23.9386 47.3266 23.9053 46.9894C23.8982 46.9173 23.9046 46.8466 23.9248 46.7774C24.0258 46.4445 23.9795 46.2238 23.7863 46.1157C23.9925 46.0667 24.0966 45.9751 24.0978 45.8411C24.1007 45.6133 24.0372 45.3612 23.9073 45.0844C23.8567 44.8984 23.9578 44.7226 24.2102 44.5566H24.2109Z" fill="#85405E"/>
<path id="Vector_63" d="M30.7122 45.3673C31.054 45.5013 31.3606 45.6816 31.632 45.9079C31.6709 45.9397 31.7222 45.9035 31.7855 45.7998C31.7986 46.46 31.8006 47.2406 31.792 48.1417C31.7905 48.273 31.7242 48.3392 31.5928 48.3407C30.8354 48.3463 30.1672 48.3429 29.5888 48.3298C29.5166 48.3284 29.4798 48.2917 29.4784 48.2195C29.4596 47.7208 29.4589 47.1845 29.4762 46.6107C29.6768 46.654 29.782 46.5819 29.7921 46.3945C29.8067 46.1293 29.9457 45.8461 30.2099 45.5447C30.3326 45.3572 30.5 45.2981 30.7119 45.3673H30.7122Z" fill="#F3E300"/>
<path id="Vector_64" d="M19.2872 45.4756C19.2655 45.6529 19.3224 45.743 19.4582 45.746C19.6993 45.7475 19.9696 45.7295 20.2698 45.6918C20.8572 45.6169 21.3619 45.6169 21.7849 45.6918C21.9465 45.7191 22.142 45.6652 22.3715 45.5295C22.5287 46.2144 22.5497 47.0792 22.4343 48.1243C22.4069 48.3765 22.3347 48.5028 22.2179 48.5028C21.2007 48.5073 20.2225 48.4777 19.2832 48.4142C19.211 48.4098 19.1735 48.3716 19.1706 48.2997C19.1447 47.344 19.1837 46.4025 19.2874 45.4756H19.2872Z" fill="#954666"/>
<path id="Vector_65" d="M9.34951 45.5298C9.39289 45.7115 9.42591 45.8014 9.44908 45.8002C10.8788 45.7339 12.0915 45.7273 13.0872 45.7807C13.1594 45.7852 13.1939 45.8233 13.1909 45.8952C13.152 46.6131 13.1187 47.3519 13.0914 48.1116C13.0884 48.1837 13.1232 48.2211 13.1951 48.2241C13.2097 48.2256 13.2232 48.2436 13.2363 48.2783C11.9579 48.2019 10.6718 48.2046 9.3776 48.2869C9.28962 48.2926 9.24624 48.2517 9.24772 48.1638C9.26226 47.2829 9.29602 46.405 9.34951 45.53V45.5298Z" fill="#85405E"/>
<path id="Vector_66" d="M5.54474 45.5835C5.68621 46.359 5.76114 47.26 5.76976 48.2864C5.77124 48.5086 5.66082 48.6172 5.43876 48.613C4.63084 48.5957 3.88059 48.5778 3.18802 48.5588C2.96596 48.5531 2.84396 48.4391 2.82227 48.2172C2.72269 47.1463 2.78258 46.3223 3.00194 45.7455C3.09708 45.9258 3.29844 46.0159 3.60578 46.0159C3.98658 46.0174 4.36539 46.0174 4.742 46.0159C5.18933 46.0548 5.457 45.9108 5.54498 45.5835H5.54474Z" fill="#842470"/>
<path id="Vector_67" d="M35.6985 45.6377C35.8962 46.311 35.9662 47.0808 35.9085 47.9471C35.8898 48.2123 35.7468 48.3515 35.4799 48.3645C34.3011 48.4221 33.4643 48.4071 32.9694 48.3192C32.8987 48.3062 32.8728 48.265 32.8915 48.1958C33.0372 47.6624 33.0394 47.0433 32.8979 46.3383C32.8836 46.2676 32.9001 46.2051 32.9477 46.1502C33.0401 46.0435 33.1094 45.9448 33.1555 45.8539C33.1888 46.0256 33.2984 46.1113 33.4845 46.1113C34.1712 46.1083 34.83 46.0746 35.4604 46.0095C35.5327 46.0051 35.5795 45.9684 35.6012 45.8992C35.6229 45.8285 35.6554 45.7414 35.6985 45.6377Z" fill="#842470"/>
<path id="Vector_68" d="M22.8755 46.1243C23.1843 46.1546 23.488 46.1517 23.7867 46.1157C23.9799 46.2238 24.0262 46.4445 23.9252 46.7774C23.905 46.8466 23.8986 46.9173 23.9057 46.9894C23.939 47.3268 24.0255 47.7925 24.1655 48.3862C23.8739 48.4468 23.5313 48.4677 23.1375 48.449C23.0004 48.4434 22.9297 48.3712 22.9253 48.2328C22.9021 47.4933 22.8856 46.7905 22.8755 46.1246V46.1243Z" fill="#7B1E4A"/>
</g>
</g>
</g>
<defs>
<clipPath id="clip0_377_945">
<rect width="42.8312" height="48.8679" fill="white" transform="translate(0.337524 0.132324)"/>
</clipPath>
</defs>
</svg>
