<svg xmlns="http://www.w3.org/2000/svg" width="117" height="45" viewBox="0 0 117 45" fill="none">
  <path d="M5.13494 43.1019H1.34521V1.64893H16.2334V5.47536H5.13494V20.1433H14.0679V23.9698H5.13494V43.1019Z" fill="black"/>
  <path d="M37.079 35.1302V31.6226H40.8688V35.1302C40.8688 37.9788 40.1289 40.1896 38.6491 41.7627C37.1693 43.2932 34.9496 44.0585 31.99 44.0585C29.0304 44.0585 26.7926 43.2932 25.2767 41.7627C23.7608 40.1896 23.0029 37.9788 23.0029 35.1302V9.62066C23.0029 6.77209 23.7428 4.58253 25.2226 3.05195C26.7024 1.47887 28.9221 0.692322 31.8817 0.692322C34.8413 0.692322 37.079 1.47887 38.5949 3.05195C40.1108 4.58253 40.8688 6.77209 40.8688 9.62066V23.6509H26.7926V35.1302C26.7926 38.5315 28.507 40.2321 31.9358 40.2321C35.3646 40.2321 37.079 38.5315 37.079 35.1302ZM26.7926 9.62066V19.8245H37.079V9.62066C37.079 6.21939 35.3646 4.51875 31.9358 4.51875C28.507 4.51875 26.7926 6.21939 26.7926 9.62066Z" fill="black"/>
  <path d="M68.1006 35.1302C68.1006 41.0824 65.0508 44.0585 58.9512 44.0585C52.8515 44.0585 49.8017 41.0824 49.8017 35.1302V29.7094H53.5914V35.3853C53.5914 36.9159 54.0426 38.1063 54.9449 38.9566C55.8472 39.8069 57.1826 40.2321 58.9512 40.2321C60.7197 40.2321 62.0551 39.8069 62.9574 38.9566C63.8597 38.1063 64.3109 36.9584 64.3109 35.5128C64.3109 34.0248 64.1665 32.8556 63.8778 32.0053C63.6251 31.1124 63.0838 30.1771 62.2536 29.1992L52.7252 18.2301C51.6063 16.9121 50.8303 15.6367 50.3972 14.4037C50.0002 13.1282 49.8017 11.5339 49.8017 9.62066C49.8017 6.77209 50.5416 4.58253 52.0214 3.05195C53.5373 1.47887 55.8111 0.692322 58.8429 0.692322C64.6538 0.692322 67.5592 3.66843 67.5592 9.62066V15.0414H63.7695V9.36556C63.7695 7.83499 63.3364 6.64455 62.4702 5.79423C61.6401 4.94391 60.3768 4.51875 58.6805 4.51875C56.9841 4.51875 55.7028 4.94391 54.8366 5.79423C54.0065 6.64455 53.5914 7.81373 53.5914 9.30179C53.5914 10.7898 53.7177 11.959 53.9704 12.8093C54.223 13.6597 54.7825 14.5525 55.6487 15.4878L65.3395 26.4569C66.3862 27.8175 67.1081 29.1354 67.5051 30.4109C67.9021 31.6439 68.1006 33.217 68.1006 35.1302Z" fill="black"/>
  <path d="M77.0361 1.64893H88.9467V5.47536H80.8258V36.023C80.8258 37.2135 81.0785 38.2126 81.5838 39.0204C82.1252 39.8282 82.8651 40.2321 83.8035 40.2321C84.778 40.2321 85.5179 39.8495 86.0232 39.0842C86.5285 38.2764 86.7811 37.256 86.7811 36.023V28.4339H90.5708V35.7679C90.5708 38.4464 89.9572 40.5084 88.7301 41.954C87.539 43.357 85.9149 44.0585 83.8576 44.0585C81.8003 44.0585 80.1401 43.357 78.8768 41.954C77.6497 40.5084 77.0361 38.4464 77.0361 35.7679V1.64893Z" fill="black"/>
  <path d="M115.204 9.62066V15.3603C115.204 18.9742 113.923 21.2913 111.36 22.3117C114.284 23.247 115.745 25.6066 115.745 29.3905V35.1302C115.745 41.0824 112.696 44.0585 106.596 44.0585C100.496 44.0585 97.4465 41.0824 97.4465 35.1302V29.7094H101.236V35.3853C101.236 36.9159 101.687 38.1063 102.59 38.9566C103.492 39.8069 104.827 40.2321 106.596 40.2321C108.364 40.2321 109.7 39.8069 110.602 38.9566C111.505 38.1063 111.956 36.9159 111.956 35.3853V29.3905C111.956 28.03 111.523 26.7971 110.656 25.6917C109.79 24.5437 108.617 23.9698 107.137 23.9698H101.669V20.7811H106.596C108.112 20.7811 109.285 20.2284 110.115 19.123C110.981 18.0175 111.414 16.7633 111.414 15.3603V9.36556C111.414 7.83499 110.981 6.64455 110.115 5.79423C109.285 4.94391 108.022 4.51875 106.325 4.51875C104.629 4.51875 103.348 4.94391 102.481 5.79423C101.651 6.64455 101.236 7.83499 101.236 9.36556V15.0414H97.4465V9.62066C97.4465 3.66843 100.352 0.692322 106.163 0.692322C109.195 0.692322 111.45 1.47887 112.93 3.05195C114.446 4.58253 115.204 6.77209 115.204 9.62066Z" fill="black"/>
  <path d="M5.13494 43.1019H1.34521V1.64893H16.2334V5.47536H5.13494V20.1433H14.0679V23.9698H5.13494V43.1019Z" stroke="black"/>
  <path d="M37.079 35.1302V31.6226H40.8688V35.1302C40.8688 37.9788 40.1289 40.1896 38.6491 41.7627C37.1693 43.2932 34.9496 44.0585 31.99 44.0585C29.0304 44.0585 26.7926 43.2932 25.2767 41.7627C23.7608 40.1896 23.0029 37.9788 23.0029 35.1302V9.62066C23.0029 6.77209 23.7428 4.58253 25.2226 3.05195C26.7024 1.47887 28.9221 0.692322 31.8817 0.692322C34.8413 0.692322 37.079 1.47887 38.5949 3.05195C40.1108 4.58253 40.8688 6.77209 40.8688 9.62066V23.6509H26.7926V35.1302C26.7926 38.5315 28.507 40.2321 31.9358 40.2321C35.3646 40.2321 37.079 38.5315 37.079 35.1302ZM26.7926 9.62066V19.8245H37.079V9.62066C37.079 6.21939 35.3646 4.51875 31.9358 4.51875C28.507 4.51875 26.7926 6.21939 26.7926 9.62066Z" stroke="black"/>
  <path d="M68.1006 35.1302C68.1006 41.0824 65.0508 44.0585 58.9512 44.0585C52.8515 44.0585 49.8017 41.0824 49.8017 35.1302V29.7094H53.5914V35.3853C53.5914 36.9159 54.0426 38.1063 54.9449 38.9566C55.8472 39.8069 57.1826 40.2321 58.9512 40.2321C60.7197 40.2321 62.0551 39.8069 62.9574 38.9566C63.8597 38.1063 64.3109 36.9584 64.3109 35.5128C64.3109 34.0248 64.1665 32.8556 63.8778 32.0053C63.6251 31.1124 63.0838 30.1771 62.2536 29.1992L52.7252 18.2301C51.6063 16.9121 50.8303 15.6367 50.3972 14.4037C50.0002 13.1282 49.8017 11.5339 49.8017 9.62066C49.8017 6.77209 50.5416 4.58253 52.0214 3.05195C53.5373 1.47887 55.8111 0.692322 58.8429 0.692322C64.6538 0.692322 67.5592 3.66843 67.5592 9.62066V15.0414H63.7695V9.36556C63.7695 7.83499 63.3364 6.64455 62.4702 5.79423C61.6401 4.94391 60.3768 4.51875 58.6805 4.51875C56.9841 4.51875 55.7028 4.94391 54.8366 5.79423C54.0065 6.64455 53.5914 7.81373 53.5914 9.30179C53.5914 10.7898 53.7177 11.959 53.9704 12.8093C54.223 13.6597 54.7825 14.5525 55.6487 15.4878L65.3395 26.4569C66.3862 27.8175 67.1081 29.1354 67.5051 30.4109C67.9021 31.6439 68.1006 33.217 68.1006 35.1302Z" stroke="black"/>
  <path d="M77.0361 1.64893H88.9467V5.47536H80.8258V36.023C80.8258 37.2135 81.0785 38.2126 81.5838 39.0204C82.1252 39.8282 82.8651 40.2321 83.8035 40.2321C84.778 40.2321 85.5179 39.8495 86.0232 39.0842C86.5285 38.2764 86.7811 37.256 86.7811 36.023V28.4339H90.5708V35.7679C90.5708 38.4464 89.9572 40.5084 88.7301 41.954C87.539 43.357 85.9149 44.0585 83.8576 44.0585C81.8003 44.0585 80.1401 43.357 78.8768 41.954C77.6497 40.5084 77.0361 38.4464 77.0361 35.7679V1.64893Z" stroke="black"/>
  <path d="M115.204 9.62066V15.3603C115.204 18.9742 113.923 21.2913 111.36 22.3117C114.284 23.247 115.745 25.6066 115.745 29.3905V35.1302C115.745 41.0824 112.696 44.0585 106.596 44.0585C100.496 44.0585 97.4465 41.0824 97.4465 35.1302V29.7094H101.236V35.3853C101.236 36.9159 101.687 38.1063 102.59 38.9566C103.492 39.8069 104.827 40.2321 106.596 40.2321C108.364 40.2321 109.7 39.8069 110.602 38.9566C111.505 38.1063 111.956 36.9159 111.956 35.3853V29.3905C111.956 28.03 111.523 26.7971 110.656 25.6917C109.79 24.5437 108.617 23.9698 107.137 23.9698H101.669V20.7811H106.596C108.112 20.7811 109.285 20.2284 110.115 19.123C110.981 18.0175 111.414 16.7633 111.414 15.3603V9.36556C111.414 7.83499 110.981 6.64455 110.115 5.79423C109.285 4.94391 108.022 4.51875 106.325 4.51875C104.629 4.51875 103.348 4.94391 102.481 5.79423C101.651 6.64455 101.236 7.83499 101.236 9.36556V15.0414H97.4465V9.62066C97.4465 3.66843 100.352 0.692322 106.163 0.692322C109.195 0.692322 111.45 1.47887 112.93 3.05195C114.446 4.58253 115.204 6.77209 115.204 9.62066Z" stroke="black"/>
</svg>